<svg width="307" height="244" viewBox="0 0 307 244" fill="none" xmlns="http://www.w3.org/2000/svg">
<path d="M147.813 212.124C145.508 212.124 143.503 210.56 142.937 208.321L137.488 186.734C137.159 185.427 137.357 184.073 138.046 182.918C138.735 181.763 139.834 180.946 141.14 180.616L195.098 166.997C195.504 166.895 195.92 166.843 196.336 166.843C197.273 166.843 198.19 167.104 198.99 167.597C200.101 168.284 200.891 169.367 201.216 170.65L206.664 192.236C206.994 193.542 206.795 194.897 206.106 196.052C205.417 197.206 204.319 198.024 203.013 198.354L149.054 211.973C148.907 212.01 148.756 212.036 148.603 212.061C148.334 212.103 148.072 212.124 147.813 212.124Z" fill="#FD8A02"/>
<path d="M200.721 172.962L139.014 188.535L140.593 194.793L202.301 179.22L200.721 172.962Z" fill="#FFCF00"/>
<path d="M203.554 184.186L141.846 199.76L143.425 206.018L205.133 190.444L203.554 184.186Z" fill="#FFCF00"/>
<g opacity="0.18">
<path opacity="0.18" d="M200.206 170.904L205.654 192.491C206.195 194.634 204.9 196.803 202.757 197.344L148.8 210.963C148.68 210.993 148.557 211.014 148.435 211.034C149.571 208.446 150.983 205.981 152.631 203.691C155.015 200.352 157.883 197.37 161.143 194.885C163.926 192.745 166.985 190.983 170.241 189.66C176.204 187.25 183.014 186.085 188.296 182.75C189.764 181.815 191.107 180.72 192.293 179.387C193.662 177.849 194.697 176.086 195.628 174.243C196.588 172.35 197.442 170.376 198.445 168.484C199.29 169.005 199.94 169.852 200.206 170.904Z" fill="#000E3F"/>
</g>
<path d="M196.337 167.884C197.092 167.884 197.819 168.098 198.445 168.484C199.29 169.005 199.941 169.853 200.206 170.904L205.654 192.491C206.196 194.633 204.9 196.803 202.757 197.344L148.8 210.963C148.68 210.993 148.557 211.014 148.435 211.033C148.226 211.066 148.018 211.083 147.812 211.083C146.027 211.083 144.405 209.88 143.947 208.066L138.498 186.479C137.958 184.336 139.253 182.167 141.395 181.627L195.353 168.008C195.682 167.924 196.012 167.884 196.337 167.884ZM196.337 165.802C195.835 165.802 195.332 165.865 194.842 165.989L140.885 179.608C137.636 180.427 135.659 183.738 136.479 186.989L141.928 208.576C142.609 211.278 145.029 213.165 147.811 213.165C148.127 213.165 148.445 213.139 148.758 213.09C148.946 213.06 149.127 213.028 149.304 212.983L203.266 199.363C204.842 198.966 206.168 197.979 207 196.585C207.832 195.192 208.071 193.557 207.672 191.981L202.224 170.395C201.835 168.849 200.881 167.541 199.538 166.712C198.572 166.116 197.466 165.802 196.337 165.802Z" fill="#000E3F"/>
<path d="M210.132 14.0622L188.665 103.83C188.137 106.039 185.922 107.399 183.713 106.871L150.448 98.9165C148.239 98.3882 146.879 96.1733 147.407 93.9631L168.874 4.19612C169.402 1.98655 171.618 0.62662 173.827 1.15488L207.091 9.10936C207.462 9.1981 207.822 9.33721 208.14 9.51949C208.664 9.8151 209.109 10.218 209.452 10.6935C210.142 11.6223 210.422 12.8474 210.132 14.0622Z" fill="#FF8EDE"/>
<path opacity="0.5" d="M210.132 14.0621L188.665 103.83C188.137 106.039 185.922 107.399 183.713 106.871L150.448 98.9165C148.239 98.3882 146.879 96.1732 147.407 93.9631L152.811 71.3654C164.002 71.4086 181.603 68.7157 192.271 45.3703C196.821 35.4053 199.656 24.701 204.92 15.0346C205.81 13.4001 206.928 11.4274 208.14 9.5188C208.664 9.81441 209.109 10.2173 209.452 10.6928C210.142 11.6222 210.422 12.8473 210.132 14.0621Z" fill="#FC09B2"/>
<path opacity="0.5" d="M177.449 8.18276C176.485 18.3564 172.404 35.4964 168.738 44.8743C168.297 45.9998 166.605 45.5951 166.722 44.3922C167.687 34.4596 171.796 17.2753 175.553 7.72885C175.752 7.22337 176.324 6.97453 176.829 7.1736C177.247 7.3385 177.489 7.75763 177.449 8.18276Z" fill="white"/>
<path d="M210.294 10.0836C209.866 9.4816 209.299 8.97313 208.652 8.61396C208.259 8.3939 207.808 8.20922 207.333 8.09349L191.715 4.3567L189.691 3.88241L174.073 0.145615C171.297 -0.525353 168.521 1.18714 167.861 3.95136L157.369 47.8305L156.883 49.8548L146.39 93.7225C145.731 96.4873 147.443 99.2635 150.208 99.9231L165.826 103.66L167.85 104.146L183.467 107.883C183.873 107.975 184.278 108.022 184.682 108.022C185.619 108.022 186.545 107.767 187.366 107.258C188.534 106.541 189.356 105.407 189.68 104.077L200.161 60.2089L200.647 58.1846L211.14 14.3055C211.498 12.8256 211.185 11.275 210.294 10.0836ZM169.886 4.43825C170.221 3.02676 171.482 2.07817 172.87 2.07817C173.102 2.07817 173.345 2.11295 173.588 2.17051L189.205 5.9073L177.995 52.7713L159.393 48.3174L169.886 4.43825ZM150.694 97.9C149.896 97.7148 149.213 97.2291 148.785 96.5233C148.357 95.8296 148.23 95.0081 148.415 94.2094L158.908 50.3417L177.51 54.7956L166.311 101.636L150.694 97.9ZM187.655 103.592C187.459 104.39 186.973 105.061 186.278 105.489C185.573 105.917 184.751 106.055 183.953 105.859L168.336 102.123L179.534 55.2705L198.136 59.7244L187.655 103.592ZM209.115 13.8204L198.622 57.6995L180.02 53.2456L191.23 6.3816L206.847 10.1184C207.125 10.1879 207.391 10.2917 207.622 10.4308C208.016 10.6389 208.351 10.9399 208.617 11.3098C209.15 12.027 209.334 12.9408 209.115 13.8204Z" fill="#000E3F"/>
<path d="M81.089 110.808C79.2476 110.808 77.4829 109.931 76.3689 108.463C76.0253 108.007 75.7531 107.515 75.5576 106.995C75.4185 106.625 75.3213 106.264 75.2584 105.891L67.3411 60.4431C66.808 57.4018 68.7376 54.4272 71.7356 53.6735L122.193 41C122.658 40.8837 123.145 40.8237 123.641 40.8237L123.844 40.8273C126.317 40.9143 128.494 42.547 129.266 44.8909L143.766 88.6897C144.28 90.2553 144.12 91.9762 143.327 93.4128C142.536 94.8477 141.171 95.8995 139.581 96.2994L82.5437 110.627C82.0658 110.746 81.5765 110.808 81.089 110.808Z" fill="#FC09B2"/>
<path d="M133.992 63.0696C134.033 62.9623 134.046 62.852 134.079 62.7435L132.416 57.7193C132.072 57.462 131.702 57.2318 131.28 57.0729C130.355 56.7245 129.391 56.6945 128.5 56.9206L130.775 65.9346C132.201 65.5736 133.434 64.5495 133.992 63.0696Z" fill="#FF8EDE"/>
<path d="M125.164 43.7012L127.439 52.7152C128.522 52.4406 129.486 51.7768 130.134 50.8258L128.277 45.2164C128.093 44.6582 127.812 44.1635 127.467 43.727C126.691 43.5243 125.904 43.5135 125.164 43.7012Z" fill="#FF8EDE"/>
<path d="M137.952 83.5092C137.028 83.1603 136.064 83.1309 135.172 83.3563L137.447 92.3703C138.873 92.0093 140.106 90.9858 140.665 89.506C141.572 87.1009 140.358 84.4158 137.952 83.5092Z" fill="#FF8EDE"/>
<path d="M131.836 70.1379L134.111 79.1519C135.536 78.7909 136.77 77.7674 137.328 76.2869C138.235 73.8825 137.02 71.1974 134.615 70.2902C133.691 69.9418 132.727 69.9124 131.836 70.1379Z" fill="#FF8EDE"/>
<path d="M106.908 46.0734L115.922 43.7984C115.91 43.7517 115.888 43.7073 115.875 43.6611L106.874 45.9223C106.885 45.972 106.895 46.023 106.908 46.0734Z" fill="#FF8EDE"/>
<path d="M127.995 65.7805C128.92 66.1294 129.884 66.1588 130.775 65.9328L128.5 56.9187C127.075 57.2797 125.841 58.3032 125.283 59.7831C124.376 62.1893 125.59 64.8738 127.995 65.7805Z" fill="#FF8EDE"/>
<path d="M119.73 67.0176C117.325 66.1104 114.64 67.3246 113.733 69.7296C113.385 70.6543 113.355 71.6184 113.581 72.5095L122.595 70.2345C122.233 68.8086 121.21 67.5752 119.73 67.0176Z" fill="#FF8EDE"/>
<path d="M107.555 69.7418C108.462 67.3361 107.248 64.6516 104.843 63.745C103.918 63.3966 102.954 63.3667 102.063 63.5927L104.338 72.6061C105.764 72.2458 106.997 71.2216 107.555 69.7418Z" fill="#FF8EDE"/>
<path d="M121.947 46.5657C121.04 48.9701 122.254 51.6558 124.659 52.5624C125.584 52.9114 126.549 52.9408 127.439 52.7147L125.163 43.7007C123.738 44.0617 122.505 45.0852 121.947 46.5657Z" fill="#FF8EDE"/>
<path d="M113.109 62.5084C115.514 63.415 118.199 62.2008 119.106 59.7957C120.013 57.3907 118.799 54.7062 116.394 53.799C113.989 52.8918 111.304 54.1066 110.397 56.5116C109.49 58.9161 110.704 61.6006 113.109 62.5084Z" fill="#FF8EDE"/>
<path d="M98.7269 50.3738L101.002 59.3879C102.427 59.0269 103.661 58.0034 104.219 56.5235C105.125 54.1184 103.911 51.4334 101.507 50.5268C100.582 50.1772 99.618 50.1484 98.7269 50.3738Z" fill="#FF8EDE"/>
<path d="M109.773 49.2896C112.178 50.1968 114.863 48.9826 115.769 46.5769C116.118 45.6523 116.148 44.6881 115.922 43.7971L106.908 46.0721C107.269 47.4986 108.293 48.732 109.773 49.2896Z" fill="#FF8EDE"/>
<path d="M131.955 86.2209C131.049 88.6254 132.263 91.311 134.668 92.2177C135.593 92.566 136.557 92.596 137.448 92.37L135.173 83.356C133.748 83.7175 132.514 84.7411 131.955 86.2209Z" fill="#FF8EDE"/>
<path d="M126.402 93.4543C123.998 92.5477 121.312 93.7619 120.406 96.1669C120.057 97.0915 120.027 98.0563 120.253 98.9467L129.267 96.6718C128.906 95.2459 127.882 94.0125 126.402 93.4543Z" fill="#FF8EDE"/>
<path d="M114.229 96.1786C115.135 93.7735 113.921 91.0885 111.517 90.1818C110.592 89.8329 109.628 89.8035 108.737 90.0289L111.012 99.043C112.437 98.682 113.67 97.6584 114.229 96.1786Z" fill="#FF8EDE"/>
<path d="M128.619 73.0029C127.712 75.4073 128.926 78.0924 131.331 78.9996C132.256 79.348 133.221 79.378 134.111 79.1519L131.836 70.1379C130.411 70.4989 129.177 71.5224 128.619 73.0029Z" fill="#FF8EDE"/>
<path d="M119.782 88.9455C122.187 89.8528 124.872 88.6379 125.778 86.2335C126.685 83.8278 125.471 81.1434 123.066 80.2367C120.661 79.3295 117.976 80.5443 117.069 82.9488C116.162 85.3538 117.376 88.0383 119.782 88.9455Z" fill="#FF8EDE"/>
<path d="M108.179 76.9633C107.255 76.6149 106.291 76.5855 105.4 76.811L107.675 85.825C109.1 85.464 110.333 84.4405 110.892 82.96C111.799 80.555 110.585 77.8705 108.179 76.9633Z" fill="#FF8EDE"/>
<path d="M116.445 75.7266C118.85 76.6332 121.535 75.419 122.442 73.0145C122.791 72.0893 122.82 71.1252 122.594 70.2341L113.58 72.5091C113.942 73.9349 114.965 75.1684 116.445 75.7266Z" fill="#FF8EDE"/>
<path d="M129.267 96.6707L120.253 98.9456C120.345 99.3066 120.49 99.649 120.664 99.9775L129.402 97.7823C129.4 97.4046 129.359 97.0322 129.267 96.6707Z" fill="#FF8EDE"/>
<path d="M80.4707 52.7455L89.4847 50.4705C89.4704 50.4135 89.4446 50.3602 89.4278 50.3032L80.4324 52.5626C80.4456 52.6237 80.4558 52.6849 80.4707 52.7455Z" fill="#FF8EDE"/>
<path d="M101.559 72.4541C102.483 72.8031 103.447 72.8325 104.338 72.6064L102.064 63.593C100.638 63.954 99.4048 64.9775 98.846 66.4574C97.9394 68.8624 99.1536 71.5469 101.559 72.4541Z" fill="#FF8EDE"/>
<path d="M93.2929 73.6904C90.8878 72.7832 88.2034 73.9974 87.2962 76.4025C86.9478 77.3271 86.9178 78.2919 87.1439 79.1823L96.1578 76.9074C95.7963 75.4821 94.7733 74.2481 93.2929 73.6904Z" fill="#FF8EDE"/>
<path d="M78.4061 70.4171C77.4815 70.0687 76.5174 70.0394 75.6263 70.2648L77.9013 79.2788C79.3266 78.9178 80.5599 77.8943 81.1182 76.4144C82.026 74.0088 80.8112 71.3243 78.4061 70.4171Z" fill="#FF8EDE"/>
<path d="M95.5105 53.2387C94.6033 55.6438 95.8175 58.3289 98.2226 59.2355C99.1472 59.5844 100.111 59.6132 101.002 59.3878L98.7274 50.3738C97.3016 50.7347 96.0687 51.7589 95.5105 53.2387Z" fill="#FF8EDE"/>
<path d="M86.6724 69.1812C89.0768 70.0885 91.7619 68.8736 92.6691 66.4686C93.5757 64.0641 92.3615 61.3791 89.9565 60.4718C87.552 59.5652 84.8669 60.7794 83.9597 63.1845C83.0525 65.589 84.2667 68.274 86.6724 69.1812Z" fill="#FF8EDE"/>
<path d="M77.7828 63.1961C78.69 60.7905 77.4757 58.106 75.0701 57.1994C74.1455 56.8504 73.1813 56.8211 72.2903 57.0465L74.5652 66.0605C75.9905 65.6995 77.2245 64.676 77.7828 63.1961Z" fill="#FF8EDE"/>
<path d="M83.3362 55.9621C85.7412 56.8693 88.4257 55.6551 89.3329 53.25C89.6813 52.3254 89.7113 51.3606 89.4852 50.4702L80.4712 52.7451C80.8322 54.171 81.8557 55.4044 83.3362 55.9621Z" fill="#FF8EDE"/>
<path d="M111.012 99.0425L108.737 90.0286C107.311 90.3901 106.078 91.4137 105.519 92.8935C104.612 95.2985 105.826 97.9836 108.231 98.8902C109.156 99.2392 110.121 99.2686 111.012 99.0425Z" fill="#FF8EDE"/>
<path d="M99.9654 100.127C97.5609 99.2203 94.8759 100.434 93.9686 102.84C93.6203 103.764 93.5903 104.728 93.8163 105.619L102.83 103.344C102.469 101.919 101.446 100.685 99.9654 100.127Z" fill="#FF8EDE"/>
<path d="M87.7915 102.851C88.6987 100.446 87.4845 97.7606 85.0794 96.854C84.1548 96.505 83.1906 96.4756 82.2996 96.7011L84.5745 105.715C85.9998 105.354 87.2332 104.331 87.7915 102.851Z" fill="#FF8EDE"/>
<path d="M102.183 79.6755C101.276 82.0805 102.49 84.765 104.895 85.6722C105.82 86.0206 106.784 86.0505 107.675 85.8245L105.4 76.8105C103.975 77.1715 102.741 78.195 102.183 79.6755Z" fill="#FF8EDE"/>
<path d="M93.3449 95.6179C95.75 96.5251 98.4344 95.3103 99.3416 92.9059C100.248 90.5008 99.0341 87.8157 96.629 86.9091C94.2245 86.0025 91.5395 87.2167 90.6322 89.6212C89.725 92.0262 90.9398 94.7113 93.3449 95.6179Z" fill="#FF8EDE"/>
<path d="M81.7423 83.6354C80.8177 83.287 79.8535 83.257 78.9625 83.4831L81.2375 92.4971C82.6627 92.1355 83.8961 91.1126 84.4544 89.6321C85.3622 87.2271 84.148 84.5426 81.7423 83.6354Z" fill="#FF8EDE"/>
<path d="M90.0088 82.3995C92.4132 83.3061 95.0983 82.0919 96.0055 79.6874C96.3539 78.7622 96.3832 77.798 96.1578 76.907L87.1438 79.1819C87.5048 80.6078 88.5283 81.8412 90.0088 82.3995Z" fill="#FF8EDE"/>
<path d="M102.83 103.344L93.8162 105.619C93.9049 105.969 94.044 106.302 94.2107 106.622L102.967 104.423C102.963 104.057 102.92 103.695 102.83 103.344Z" fill="#FF8EDE"/>
<path d="M72.4095 73.1296C71.5029 75.5347 72.7171 78.2197 75.1215 79.1264C76.0467 79.4753 77.0109 79.5047 77.9019 79.2787L75.627 70.2646C74.2011 70.6256 72.9677 71.6492 72.4095 73.1296Z" fill="#FF8EDE"/>
<path d="M69.0732 59.9111C68.1666 62.3155 69.3808 65.0012 71.7852 65.9078C72.7104 66.2568 73.6746 66.2862 74.565 66.0601L72.2901 57.0461C70.8648 57.4071 69.6314 58.4312 69.0732 59.9111Z" fill="#FF8EDE"/>
<path d="M84.5747 105.716L82.2997 96.7021C80.8745 97.0631 79.6411 98.0873 79.0828 99.5671C78.1762 101.972 79.3904 104.657 81.7949 105.564C82.7201 105.912 83.6843 105.942 84.5747 105.716Z" fill="#FF8EDE"/>
<path d="M75.7459 86.3484C74.8393 88.7528 76.0535 91.4379 78.458 92.3451C79.3832 92.6935 80.3473 92.7229 81.2378 92.4974L78.9628 83.4834C77.5381 83.8444 76.3041 84.8679 75.7459 86.3484Z" fill="#FF8EDE"/>
<path opacity="0.25" d="M139.328 95.2907L82.2894 109.617C80.3148 110.113 78.3391 109.337 77.198 107.834C76.9264 107.475 76.6968 107.069 76.5319 106.629C110.471 92.4581 128.187 72.9143 121.395 42.2752L122.446 42.0114C122.899 41.8974 123.361 41.8542 123.81 41.8686C125.808 41.9394 127.622 43.228 128.276 45.2175L142.776 89.0181C143.665 91.7199 142.08 94.5993 139.328 95.2907Z" fill="#000E3F"/>
<path d="M144.759 88.3679L130.252 44.5583C129.35 41.8048 126.793 39.8849 123.878 39.7919C123.798 39.78 123.728 39.78 123.647 39.78C123.057 39.78 122.49 39.8495 121.935 39.988L119.841 40.5085C115.26 24.81 101.864 14.7221 89.4049 17.8461C76.9341 20.9814 69.912 36.217 73.2782 52.216L71.4854 52.6675C67.9573 53.5465 65.6895 57.0404 66.3143 60.6267L74.2388 106.079C74.3084 106.496 74.4241 106.924 74.586 107.364C74.8174 107.977 75.1412 108.555 75.5346 109.088C76.8531 110.823 78.9242 111.852 81.0876 111.852C81.6662 111.852 82.2329 111.783 82.8001 111.632L139.833 97.3105C141.707 96.8362 143.315 95.5986 144.241 93.9209C145.176 92.2204 145.361 90.2075 144.759 88.3679ZM89.9127 19.871C101.273 16.9904 113.524 26.4187 117.828 41.0182L75.3019 51.7075C72.1785 36.8191 78.541 22.7287 89.9127 19.871ZM139.322 95.2856L82.2898 109.619C81.8845 109.723 81.4798 109.769 81.0864 109.769C79.5478 109.769 78.1021 109.029 77.1997 107.837C76.9221 107.479 76.702 107.073 76.5287 106.623C76.4244 106.334 76.3435 106.044 76.2859 105.72L68.3614 60.2676C67.9219 57.7456 69.5067 55.3046 71.9939 54.6798L73.891 54.2055L75.6263 53.766L118.511 42.9957L120.246 42.5676L122.444 42.0123C122.848 41.908 123.254 41.8618 123.647 41.8618H123.809C125.81 41.9428 127.627 43.2271 128.274 45.2167L142.781 89.0149C143.66 91.7227 142.076 94.6033 139.322 95.2856Z" fill="#000E3F"/>
<path d="M135.29 220.2C128.565 220.2 122.307 216.714 118.551 210.875L118.455 210.715L93.2457 165.739L43.8975 71.0196C41.2832 66.6622 36.6481 63.9213 31.8297 63.9213C31.3158 63.9213 30.7959 63.9531 30.2862 64.0149L14.1662 65.9792C14.0397 65.9948 13.9132 66.002 13.7891 66.002C12.2223 66.002 10.8971 64.8285 10.7059 63.2714C10.5026 61.5834 11.7138 60.0322 13.4059 59.8122L29.5349 57.8478C30.2928 57.7549 31.0657 57.7087 31.8309 57.7087C38.8475 57.7087 45.5398 61.6302 49.2952 67.9429L49.3755 68.0863L98.71 162.783L123.84 207.617C126.416 211.583 130.71 213.985 135.291 213.985C136.335 213.985 137.375 213.857 138.385 213.602L225.913 191.593C226.161 191.531 226.417 191.499 226.673 191.499C228.098 191.499 229.336 192.465 229.684 193.848C230.1 195.508 229.091 197.199 227.431 197.618L139.9 219.628C138.395 220.008 136.844 220.2 135.29 220.2Z" fill="#4217A6"/>
<path d="M100.049 176.524C96.2754 176.524 89.4158 173.615 87.8328 170.752L79.6997 155.677L66.712 131.648L55.4339 110.757C55.4339 110.757 55.3086 110.522 55.2816 110.467C55.269 110.441 55.251 110.403 55.2318 110.36L55.2264 110.362L51.8146 104.057C50.7017 101.995 50.6094 99.5775 51.558 97.4237C52.5479 95.18 54.5069 93.5454 56.9323 92.9386L208.455 54.8427C209.09 54.6832 209.734 54.6023 210.369 54.6023C214.72 54.6023 218.204 58.0189 218.206 62.218L218.107 97.862L218.002 141.031C217.983 144.58 215.512 147.676 211.992 148.565L180.073 156.59L175.89 157.647L157.16 162.352L152.996 163.403L133.366 168.336L129.181 169.392L111.293 173.886L107.038 174.961L101.377 176.379C100.988 176.474 100.542 176.524 100.049 176.524Z" fill="#915EFD"/>
<path d="M217.064 97.8569L217.077 93.4342L201.137 97.4576L200.369 74.3275C200.334 73.133 199.335 72.2138 198.15 72.2462C196.969 72.2888 196.036 73.2799 196.079 74.4624L196.882 98.5321L172.271 104.743L168.446 78.9978C168.268 77.8292 167.179 77.0173 166.01 77.1948C164.838 77.3633 164.029 78.4618 164.197 79.6334L168.086 105.799L144.426 111.771L137.835 85.5726C137.547 84.4316 136.381 83.7354 135.229 84.0262C134.658 84.1701 134.196 84.5317 133.911 85.0084C133.625 85.4749 133.526 86.0541 133.67 86.6243L140.261 112.823L115.71 119.019L106.715 94.0566C106.314 92.9329 105.08 92.3495 103.97 92.7578C102.856 93.1559 102.272 94.3893 102.68 95.501L111.524 120.076L87.8448 126.052L77.0883 104.324C76.5546 103.266 75.2721 102.823 74.2114 103.346C73.1434 103.882 72.7105 105.163 73.2334 106.223L83.5893 127.126L67.6294 131.154C68.2908 132.382 68.9899 133.675 69.7292 135.044L85.5393 131.053L95.6164 151.398L80.6176 155.184C81.2994 156.449 81.9985 157.743 82.7175 159.073L97.5561 155.328L106.782 173.949L111.038 172.875L101.821 154.252L122.007 149.157L128.925 168.381L133.11 167.325L126.182 148.103L147.779 142.652L152.74 162.392L156.905 161.34L151.934 141.603L172.63 136.379L175.633 156.634L179.818 155.578L176.814 135.323L197.921 129.996L198.616 150.854L202.872 149.78L202.176 128.922L216.995 125.181L217.008 120.759L202.039 124.537L201.284 101.84L217.064 97.8569ZM99.8712 150.324L89.7941 129.98L112.984 124.127L120.547 145.106L99.8712 150.324ZM146.73 138.498L124.722 144.052L117.169 123.071L141.309 116.978L146.73 138.498ZM171.992 132.121L150.895 137.446L145.474 115.926L168.714 110.061L171.992 132.121ZM197.774 125.614L176.177 131.065L172.899 109.004L197.02 102.916L197.774 125.614Z" fill="#4217A6"/>
<path d="M158.944 224.702C160.845 232.262 156.262 239.921 148.702 241.822C145.08 242.733 141.436 242.149 138.408 240.467C135.123 238.647 132.572 235.518 131.582 231.58C129.685 224.03 134.264 216.361 141.824 214.46C143.53 214.032 145.24 213.936 146.88 214.132C152.548 214.785 157.475 218.858 158.944 224.702Z" fill="#00D5FE"/>
<path d="M227.115 207.496C229.016 215.056 224.434 222.715 216.874 224.616C213.251 225.527 209.607 224.943 206.579 223.261C203.294 221.441 200.743 218.312 199.754 214.375C197.856 206.824 202.435 199.155 209.995 197.254C211.702 196.825 213.411 196.73 215.052 196.926C220.72 197.579 225.646 201.651 227.115 207.496Z" fill="#00D5FE"/>
<path d="M17.8567 61.8805C19.0116 66.4562 16.2426 71.096 11.6765 72.2485C8.38221 73.0802 5.05376 71.8749 3.00907 69.4303C2.22598 68.4775 1.62936 67.3394 1.30617 66.0581C0.151312 61.4818 2.92033 56.8426 7.49658 55.6877C9.07836 55.2884 10.6715 55.3549 12.1178 55.81C14.8592 56.6723 17.1006 58.8861 17.8567 61.8805Z" fill="#00D5FE"/>
<path d="M217.168 62.2209L217.152 69.7628L56.3204 110.195L52.7395 103.557C50.678 99.7447 52.8618 95.0276 57.1821 93.9411L208.706 55.8494C213.017 54.7653 217.172 57.8899 217.168 62.2209Z" fill="#00D5FE"/>
<path opacity="0.75" d="M115.331 84.9855C122.394 82.5163 129.533 80.3511 136.7 78.2932C140.276 77.2355 143.88 76.2887 147.471 75.2891L158.285 72.4572L169.141 69.7913C172.775 68.9614 176.394 68.0728 180.042 67.3011C187.322 65.6953 194.631 64.1999 202.017 63.0102C202.867 62.8735 203.668 63.4521 203.805 64.303C203.927 65.0615 203.48 65.781 202.777 66.0245C195.712 68.4823 188.568 70.6343 181.398 72.676C177.821 73.7277 174.214 74.6631 170.621 75.6573L159.8 78.4629L148.938 81.1024C145.303 81.9269 141.681 82.8035 138.031 83.5698C130.746 85.1594 123.435 86.6416 116.046 87.8205C115.245 87.9482 114.493 87.4025 114.366 86.6021C114.253 85.8897 114.673 85.2152 115.331 84.9855Z" fill="white"/>
<path d="M112.739 121.896C115.182 117.265 122.245 115.298 127.065 116.666C131.836 118.02 132.933 123.431 127.051 126.875C118.995 131.591 109.571 127.903 112.739 121.896Z" fill="#FF8EDE"/>
<path d="M173.005 106.685C168.658 103.768 161.507 105.388 157.914 108.879C154.357 112.335 155.959 117.619 162.771 117.858C172.101 118.187 178.645 110.469 173.005 106.685Z" fill="#FF8EDE"/>
<path d="M148.122 103.029C150.247 103 151.514 104.107 151.987 105.795C154.519 114.847 141.727 121.341 134.692 116.509C132.174 114.779 128.725 109.954 132.115 107.365C133.902 106 141.197 103.122 148.122 103.029Z" fill="white"/>
<path opacity="0.25" d="M217.169 62.2185L217.151 69.7635L216.964 141.028C216.954 144.087 214.799 146.787 211.747 147.554L101.124 175.365C98.0723 176.131 90.2366 172.935 88.7543 170.252L86.7205 166.481C205.486 139.765 206.646 75.0575 210.391 55.6384C214.039 55.6114 217.171 58.459 217.169 62.2185Z" fill="#000E3F"/>
<g opacity="0.25">
<path opacity="0.25" d="M158.944 224.701C160.844 232.261 156.262 239.921 148.702 241.822C145.079 242.732 141.436 242.148 138.408 240.466C141.978 239.346 144.938 237.132 147.012 234.29C149.116 231.409 150.303 227.867 150.274 224.165C150.258 222.851 150.092 221.504 149.756 220.169C149.191 217.92 148.191 215.88 146.88 214.131C152.548 214.785 157.475 218.858 158.944 224.701Z" fill="#4217A6"/>
<path opacity="0.25" d="M227.115 207.495C229.016 215.055 224.434 222.715 216.874 224.615C213.251 225.526 209.607 224.942 206.58 223.26C210.15 222.14 213.111 219.926 215.183 217.084C217.287 214.203 218.475 210.661 218.446 206.959C218.43 205.645 218.264 204.298 217.928 202.963C217.362 200.714 216.363 198.674 215.052 196.926C220.72 197.578 225.646 201.651 227.115 207.495Z" fill="#4217A6"/>
<path opacity="0.25" d="M17.8564 61.8803C19.0113 66.456 16.2423 71.0958 11.6762 72.2482C8.38193 73.0799 5.05347 71.8747 3.00879 69.43C5.19918 68.8244 7.24326 67.8501 8.93357 66.4865C12.4935 63.6282 12.8179 59.8506 12.1175 55.8098C14.859 56.6721 17.1003 58.8858 17.8564 61.8803Z" fill="#4217A6"/>
</g>
<path d="M227.694 198.627C229.903 198.072 231.245 195.816 230.69 193.595C230.227 191.744 228.573 190.46 226.676 190.46C226.328 190.46 225.993 190.506 225.658 190.587L138.131 212.59C137.205 212.833 136.245 212.949 135.296 212.949C131.085 212.949 127.14 210.739 124.711 207.048L107.301 175.975L111.547 174.9L129.432 170.399L133.619 169.347L153.251 164.407L157.415 163.366L176.145 158.658L180.333 157.594L199.12 152.874L203.377 151.798L212.25 149.577C216.23 148.571 219.018 145.066 219.041 141.04L219.076 125.192L219.087 120.772L219.145 97.8666L219.156 93.4474L219.226 69.7669L219.249 62.2243C219.249 57.4466 215.293 53.5593 210.435 53.5593C210.435 53.5593 210.376 53.5593 210.365 53.5593C209.648 53.5593 208.919 53.6517 208.202 53.8369L62.2424 90.5321L50.3035 67.6149C50.2573 67.5339 50.2225 67.4644 50.1878 67.4068C46.2543 60.7895 39.2094 56.6713 31.8288 56.6713C31.0187 56.6713 30.2092 56.7175 29.4111 56.8218L17.3103 58.2909C16.1189 56.6713 14.4298 55.4451 12.4283 54.8203C10.7626 54.2885 8.96911 54.2417 7.24582 54.6818C4.75862 55.3066 2.66477 56.8566 1.35761 59.0548C0.0504555 61.253 -0.331498 63.8325 0.293299 66.3083C0.651868 67.7084 1.28806 68.9808 2.21386 70.1027C4.05348 72.3122 6.8069 73.5499 9.61789 73.5499C10.3932 73.5499 11.1679 73.4575 11.9318 73.2608C15.4024 72.3818 17.9591 69.6979 18.8148 66.4588L30.4179 65.0473C30.8808 64.9898 31.3545 64.9664 31.8294 64.9664C36.2713 64.9664 40.5406 67.4884 43.0044 71.5603L54.1566 92.9737C52.5952 93.9109 51.357 95.299 50.6051 96.9995C49.5294 99.452 49.6331 102.205 50.8941 104.553L54.2837 110.801C54.3065 110.858 54.3299 110.905 54.3647 110.963C54.3994 111.021 54.4228 111.078 54.457 111.136C54.4798 111.171 54.5032 111.229 54.5146 111.252L55.7869 113.6C57.2794 116.365 60.1947 121.779 65.7939 132.145L67.2402 134.806L67.8997 136.032L71.7984 143.251C73.8689 147.092 76.1942 151.383 78.7857 156.184C79.3524 157.237 79.9424 158.313 80.5324 159.424L80.891 160.071C81.8048 161.783 82.7654 163.553 83.7601 165.393L84.8826 167.475L86.9069 171.234C88.4917 174.103 94.438 176.891 98.6258 177.458L117.552 211.227C117.575 211.284 117.622 211.354 117.668 211.423C120.988 216.594 126.17 220.007 131.943 220.956C130.127 224.287 129.641 228.128 130.578 231.842C131.596 235.879 134.268 239.362 137.901 241.375C140.18 242.647 142.714 243.295 145.258 243.295C146.496 243.295 147.734 243.145 148.96 242.832C152.882 241.849 156.19 239.396 158.262 235.926C159.684 233.554 160.425 230.882 160.425 228.187C160.425 226.937 160.263 225.688 159.951 224.45C159.199 221.454 157.533 218.816 155.3 216.838L199.191 205.79C198.207 208.532 197.988 211.597 198.751 214.628C199.769 218.677 202.442 222.159 206.074 224.172C208.353 225.445 210.887 226.081 213.431 226.081C214.669 226.081 215.907 225.93 217.133 225.629C221.055 224.635 224.364 222.182 226.435 218.712C227.857 216.34 228.598 213.68 228.598 210.972C228.598 209.735 228.436 208.485 228.124 207.248C227.372 204.263 225.741 201.648 223.519 199.682L227.684 198.629H227.694V198.627ZM11.4209 71.2347C8.64412 71.9405 5.64845 70.9685 3.80883 68.7709C3.0917 67.8919 2.59402 66.8965 2.3164 65.8094C1.81872 63.8547 2.11972 61.8418 3.14926 60.1179C4.1674 58.4054 5.81035 57.1912 7.75369 56.6935C8.3671 56.543 8.9799 56.4621 9.6047 56.4621C10.3452 56.4621 11.0971 56.5778 11.8029 56.7972C12.9595 57.1558 13.9777 57.7806 14.8105 58.5907C14.8915 58.6602 14.9611 58.7412 15.0306 58.8107C15.5163 59.3198 15.9216 59.8865 16.2334 60.5226C16.4997 61.0203 16.7077 61.5642 16.8468 62.1308C17.0549 62.9523 17.1131 63.7731 17.0549 64.5718C16.9973 65.3237 16.8235 66.0529 16.5458 66.7352C15.6896 68.898 13.8386 70.6213 11.4209 71.2347ZM44.8194 70.5404C41.9623 65.7627 36.9993 62.8821 31.8282 62.8821C31.2729 62.8821 30.7177 62.9169 30.1625 62.9865L19.1494 64.317C19.1607 64.2013 19.1607 64.0742 19.1607 63.9584C19.1607 63.1831 19.0684 62.4084 18.8717 61.6217C18.756 61.1474 18.6055 60.6965 18.4088 60.257L29.6648 58.8803C30.3819 58.7994 31.111 58.7532 31.8282 58.7532C38.4569 58.7532 44.796 62.409 48.4057 68.4819C48.4171 68.5053 48.4405 68.5395 48.4519 68.5749L60.1707 91.0526L56.6774 91.9316C56.4693 91.9778 56.2606 92.0473 56.0526 92.1049L44.8194 70.5404ZM97.2934 175.073C93.869 174.229 89.7737 172.123 88.7441 170.249L86.7198 166.477C85.3197 163.898 83.9778 161.433 82.7168 159.073C81.9997 157.743 81.2939 156.447 80.6116 155.187C76.262 147.146 72.6871 140.506 69.7256 135.046C68.985 133.68 68.2907 132.385 67.6317 131.159C59.4878 116.097 57.012 111.481 56.3524 110.266C56.329 110.22 56.3062 110.162 56.2828 110.127C56.2481 110.081 56.2247 110.023 56.2019 109.988L56.1905 109.953C56.1677 109.918 56.1677 109.918 56.1677 109.918L56.1443 109.861L52.7319 103.556C51.0314 100.409 52.2228 96.6494 55.1268 94.8217C55.7054 94.4632 56.3416 94.1736 57.0353 93.9889C57.0815 93.9661 57.1397 93.9541 57.1858 93.9427L61.1541 92.948L63.2246 92.4275L208.709 55.8481C209.265 55.7089 209.832 55.6394 210.364 55.6394C210.375 55.6394 210.375 55.6394 210.387 55.6394H210.433C214.066 55.6394 217.166 58.4738 217.166 62.2219L217.143 69.7645L217.073 93.4336L217.062 97.8528L217.004 120.758L216.993 125.177L216.958 141.026C216.946 144.091 214.795 146.787 211.741 147.55L202.868 149.783L198.622 150.859L179.823 155.579L175.635 156.632L156.906 161.34L152.741 162.392L133.11 167.32L128.922 168.385L111.037 172.873L106.78 173.949L106.236 174.088L104.154 174.609L101.123 175.361C100.81 175.442 100.452 175.476 100.047 175.476C100.001 175.476 99.9425 175.476 99.8963 175.465C99.133 175.455 98.2426 175.316 97.2934 175.073ZM119.425 210.311C119.401 210.276 119.378 210.241 119.367 210.207L101.031 177.492C101.239 177.468 101.436 177.434 101.621 177.388L105.207 176.497L122.93 208.125C125.764 212.487 130.461 215.032 135.296 215.032C136.28 215.032 137.274 214.927 138.269 214.697C136.268 215.737 134.521 217.206 133.168 219.035C127.707 218.386 122.617 215.274 119.425 210.311ZM157.935 224.957C158.792 228.346 158.271 231.851 156.478 234.848C154.684 237.844 151.838 239.961 148.449 240.817C145.221 241.626 141.832 241.175 138.916 239.556C135.723 237.786 133.479 234.871 132.588 231.331C131.744 227.941 132.253 224.436 134.046 221.44C134.092 221.359 134.138 221.289 134.197 221.208C134.648 220.456 135.18 219.773 135.781 219.149C137.471 217.368 139.634 216.083 142.074 215.471C143.127 215.204 144.18 215.077 145.244 215.077C145.742 215.077 146.25 215.101 146.759 215.17C147.904 215.297 149.004 215.574 150.044 216.002C151.004 216.372 151.919 216.87 152.752 217.472C155.275 219.23 157.161 221.868 157.935 224.957ZM153.135 215.227C151.307 214.093 149.225 213.353 147.004 213.099C146.356 213.018 145.708 212.983 145.06 212.994L206.188 197.62C203.712 198.973 201.699 200.974 200.335 203.357L153.135 215.227ZM226.108 207.754C226.953 211.132 226.444 214.649 224.651 217.645C222.857 220.642 220 222.759 216.623 223.603C213.395 224.425 210.005 223.973 207.078 222.354C203.897 220.584 201.653 217.669 200.762 214.117C199.975 210.994 200.392 207.836 201.722 205.152C202.173 204.238 202.728 203.382 203.388 202.595C205.088 200.525 207.448 198.963 210.248 198.268C211.289 198.002 212.353 197.875 213.406 197.875C213.915 197.875 214.424 197.898 214.933 197.956C216.113 198.095 217.247 198.395 218.323 198.835C219.272 199.217 220.163 199.714 220.984 200.315C223.471 202.063 225.333 204.688 226.108 207.754ZM221.377 198.072C219.526 196.915 217.409 196.151 215.176 195.897C214.61 195.827 214.031 195.793 213.464 195.793L226.167 192.6C226.34 192.565 226.502 192.542 226.676 192.542C227.601 192.542 228.434 193.167 228.677 194.104C228.955 195.214 228.284 196.337 227.173 196.615L221.377 198.072Z" fill="#000E3F"/>
<path d="M143.704 221.938C140.277 222.8 138.198 226.276 139.06 229.702C139.921 233.129 143.397 235.209 146.824 234.348C150.251 233.486 152.33 230.01 151.469 226.583C150.607 223.156 147.131 221.077 143.704 221.938Z" fill="#000E3F"/>
<path d="M211.875 204.732C208.449 205.593 206.369 209.069 207.231 212.496C208.092 215.923 211.568 218.003 214.995 217.141C218.422 216.279 220.501 212.803 219.64 209.376C218.778 205.95 215.302 203.871 211.875 204.732Z" fill="#000E3F"/>
<path d="M118.244 114.211C123.056 116.177 127.961 110.983 124.838 106.668C123.068 104.216 119.944 103.729 117.665 104.887C113.779 106.888 114.369 112.626 118.244 114.211Z" fill="#000E3F"/>
<path d="M164.495 102.539C167.156 99.3108 164.947 93.9665 160.574 94.0588C158.028 94.1164 155.506 96.0255 155.114 99.0218C154.407 104.309 161.198 106.553 164.495 102.539Z" fill="#000E3F"/>
<path d="M280.584 194.26C276.234 195.509 272.439 196.065 269.143 196.099C264.528 196.18 260.894 195.243 258.026 193.809C252.322 190.951 249.674 186.081 248.54 183.12C245.37 174.849 243.716 167.468 243.623 161.198C243.461 151.052 246.619 147.998 254.844 142.804C250.356 137.91 245.821 140.016 246.006 137.112C246.064 136.013 247.325 134.983 249.754 134.035C251.466 133.387 253.387 133.052 255.434 133.109C263.104 133.307 265.163 137.818 267.142 137.251C267.014 137.286 279.416 131.432 288.323 135.643C288.555 135.747 288.775 135.863 289.006 135.99C289.804 136.418 290.58 136.939 291.32 137.54C298.574 143.347 302.876 156.003 304.416 160.503C310.361 177.96 298.458 189.136 280.584 194.26Z" fill="#00D5FE"/>
<path d="M268.597 197.146C264.467 197.146 260.755 196.337 257.559 194.74C251.435 191.673 248.671 186.375 247.567 183.491C244.354 175.107 242.676 167.612 242.581 161.214C242.418 151.037 245.695 147.473 253.182 142.63C251.319 140.991 249.502 140.508 248.127 140.144C246.579 139.734 244.825 139.269 244.966 137.046C245.047 135.498 246.49 134.192 249.375 133.065C251.283 132.342 253.325 132.011 255.464 132.069C260.51 132.198 263.285 134.091 265.12 135.343C265.833 135.828 266.57 136.332 266.855 136.25L266.86 136.269C269.339 135.033 280.432 130.759 288.767 134.701C289.008 134.811 289.251 134.937 289.507 135.078C290.35 135.53 291.184 136.088 291.976 136.732C299.427 142.696 303.75 155.342 305.378 160.103C307.775 167.141 307.511 173.487 304.615 179.029C300.824 186.279 292.613 191.893 280.87 195.261C276.657 196.47 272.715 197.102 269.153 197.141C268.968 197.144 268.781 197.146 268.597 197.146ZM254.979 134.145C253.271 134.145 251.641 134.435 250.122 135.009C247.894 135.879 247.07 136.694 247.045 137.167C247.018 137.606 247.012 137.694 248.66 138.132C250.402 138.593 253.033 139.289 255.611 142.1C255.82 142.328 255.917 142.636 255.876 142.942C255.834 143.248 255.66 143.52 255.399 143.685C247.485 148.684 244.509 151.487 244.663 161.182C244.755 167.337 246.386 174.592 249.512 182.748C250.507 185.351 252.997 190.127 258.491 192.879C261.525 194.395 265.108 195.131 269.124 195.061C272.505 195.025 276.262 194.419 280.296 193.261C291.478 190.055 299.25 184.799 302.77 178.066C305.392 173.049 305.613 167.254 303.429 160.84C301.834 156.175 297.652 143.945 290.668 138.354C289.973 137.789 289.249 137.305 288.513 136.909C288.295 136.789 288.1 136.685 287.892 136.592C279.723 132.734 268.141 137.931 267.642 138.165C267.576 138.202 267.503 138.232 267.428 138.254C266.197 138.605 265.158 137.891 263.946 137.065C262.215 135.884 259.843 134.266 255.406 134.152C255.265 134.147 255.122 134.145 254.979 134.145Z" fill="#000E3F"/>
<path opacity="0.75" d="M254.693 149.758C249.183 154.129 246.729 163.851 251.48 172.582C251.999 173.535 253.279 173.202 253.321 172.111C253.373 170.777 253.236 169.875 253.237 168.761C253.547 161.274 253.573 159.574 258.675 149.91L258.748 149.771C259.03 149.238 258.865 148.535 258.381 148.199C257.531 147.608 255.478 149.132 254.693 149.758Z" fill="white"/>
<path d="M272.666 165.44C270.328 164.951 266.507 164.621 265.697 162.779C265.362 162.016 265.894 160.987 266.561 160.694C268.595 159.8 267.692 163.266 270.424 162.066C271.059 161.787 271.539 161.5 272.175 161.221L272.682 160.997C273.35 160.703 273.678 160.331 273.399 159.696C272.897 158.552 272.565 157.713 271.657 156.938C270.747 156.163 268.884 155.201 267.226 155.74C266.926 155.834 266.743 155.762 266.618 155.476L265.473 152.872C264.996 152.475 262.402 153.73 262.56 153.66C261.797 153.995 260.662 154.342 260.941 154.977C261.011 155.136 262.064 157.098 262.133 157.258C262.231 157.48 262.414 157.552 262.233 157.745C261.374 158.463 260.51 159.601 260.101 160.653C259.655 161.796 259.753 162.966 260.213 164.014C260.883 165.539 262.326 166.838 263.799 167.517C266.534 168.74 271.237 168.833 272.424 171.533C272.716 172.2 272.132 173.025 271.465 173.319C270.353 173.807 269.81 173.175 269.517 172.507C269.363 172.158 269.205 171.887 269.052 171.537C268.48 170.235 267.458 171.101 266.4 171.452C266.004 171.588 265.595 171.692 265.118 171.902C263.658 172.543 263.811 172.893 264.37 174.163C265.612 176.99 266.722 178.738 270.248 178.401C272.657 178.101 271.503 181.944 273.822 180.925L274.711 180.534C275.188 180.324 275.618 180.096 276.031 179.915C276.92 179.524 277.084 179.035 276.861 178.527L276.805 178.401C276.679 178.115 275.971 176.417 275.846 176.131C276.005 176.061 277.192 174.365 277.317 174.045C278.194 172.332 278.172 170.902 277.572 169.536C276.806 167.789 274.834 165.889 272.666 165.44Z" fill="#000E3F"/>
<path d="M290.497 163.605L287.531 164.909L281.404 148.351C281.369 148.259 281.325 148.156 281.279 148.067C280.626 146.792 279.062 146.288 277.787 146.943C276.512 147.596 276.009 149.159 276.662 150.435L284.719 166.145L281.752 167.449C281.153 167.712 281.063 168.526 281.592 168.913L289.292 174.563C289.82 174.951 290.569 174.621 290.64 173.971L291.684 164.477C291.756 163.826 291.097 163.341 290.497 163.605Z" fill="#000E3F"/>
<g opacity="0.25">
<path opacity="0.25" d="M280.584 194.26C276.234 195.509 272.439 196.065 269.143 196.099C264.596 196.029 260.941 195.138 258.026 193.808C258.038 193.751 258.061 193.705 258.072 193.647C259.322 189.852 264.226 187.689 268.819 186.544C273.655 185.341 278.675 184.751 283.442 183.374C288.208 181.985 292.847 179.626 295.161 175.947C297.879 171.667 296.942 166.496 295.033 161.995C293.147 157.495 290.371 153.203 289.515 148.483C288.856 144.793 289.549 140.999 291.32 137.54C298.574 143.347 302.876 156.003 304.416 160.503C310.361 177.96 298.458 189.135 280.584 194.26Z" fill="#4217A6"/>
</g>
<path d="M44.7829 183.588C43.5159 184.78 42.4768 185.851 41.3915 186.293C40.3146 186.731 39.3618 185.45 40.016 184.608C41.0857 183.229 43.4943 181.723 43.3366 181.301C43.1813 180.885 42.6129 181.067 42.2178 181.06C40.0184 181.021 38.6746 181.178 37.2398 180.892C36.1503 180.675 36.3116 178.893 37.2565 178.679C38.1686 178.472 39.1909 178.591 43.9021 178.547C45.4635 178.532 44.2912 177.273 43.1777 175.564C42.5463 174.594 42.1134 173.099 43.1651 172.628C44.0328 172.239 44.5556 173.005 45.1007 173.791C47.9698 177.931 47.1556 178.015 48.8243 172.111C49.1307 171.026 49.602 169.719 50.6969 170.106C51.8146 170.501 51.3397 171.764 50.7503 174.321C50.6729 174.657 50.4846 174.971 50.4343 175.309C50.3233 176.055 49.9324 176.751 50.0343 177.534C50.9541 177.667 51.4488 176.863 52.1671 176.548C53.319 176.045 53.8611 175.085 55.1688 175.358C55.6779 175.464 55.9969 175.986 55.8014 176.458C54.8456 178.76 51.0159 179.267 53.1367 180.261C55.8782 181.544 56.5593 181.74 57.5835 182.501C58.5494 183.219 57.9072 184.584 56.7362 184.353C54.7935 183.97 51.5106 182.027 51.143 182.402C50.7598 182.792 53.8377 186.272 53.8766 187.617C53.9054 188.59 53.0588 189.023 52.3422 188.561C51.2527 187.859 51.0447 187.247 49.1487 184.501C49.0012 184.288 48.8555 183.977 48.5269 184.092C48.2331 184.195 48.2091 184.522 48.1689 184.788C47.965 186.133 47.5501 189.169 47.5099 189.309C47.131 190.622 45.0144 190.429 45.1774 188.929C45.7441 183.716 46.4246 182.337 44.8117 183.619C44.8015 183.609 44.7919 183.598 44.7829 183.588Z" fill="#FD8A02"/>
<path d="M43.9806 231.143C42.5152 232.445 40.7115 234.286 39.8061 233.093C39.1753 232.262 39.9392 231.66 40.8171 230.904C41.3202 230.471 42.872 229.4 42.7718 229.106C42.6351 228.705 42.424 228.952 38.8863 228.787C37.8508 228.739 36.6624 228.644 36.8147 227.62C37.0233 226.223 37.5216 226.601 43.3343 226.71C44.7008 226.736 43.7066 225.606 42.7748 224.083C42.246 223.218 41.9048 221.901 42.8366 221.514C43.6071 221.194 44.046 221.883 44.5005 222.58C46.908 226.271 46.1932 226.326 47.7996 221.202C48.0946 220.26 48.5395 219.129 49.4881 219.495C51.1269 220.126 48.5749 224.507 48.7242 225.976C49.5253 226.115 49.978 225.423 50.6148 225.166C51.6347 224.754 52.1306 223.927 53.2705 224.2C54.4577 224.483 53.6452 225.837 52.6151 226.53C49.96 228.317 50.0877 227.711 54.1417 229.815C54.953 230.237 55.9166 230.834 55.4998 231.639C55.0507 232.507 54.0296 232.056 53.0492 231.63C48.6996 229.737 48.6912 229.115 51.4261 233.704C52.6337 235.73 50.8612 236.982 49.2423 234.356C46.8372 230.455 47.173 230.739 46.3845 235.324C46.3102 235.755 46.2844 237.223 44.9202 236.915C44.4178 236.801 44.1126 236.408 44.1929 235.825C44.8177 231.282 45.4509 230.089 44.0046 231.17C43.9968 231.161 43.9884 231.152 43.9806 231.143Z" fill="#FD8A02"/>
<path d="M91.3575 225.845C90.5828 227.27 89.9754 228.521 89.1425 229.228C88.3163 229.93 87.1002 229.074 87.4336 228.137C87.9787 226.605 89.6732 224.569 89.4106 224.242C89.1521 223.919 88.7018 224.246 88.3498 224.355C86.3915 224.96 85.2474 225.491 83.8935 225.655C82.8658 225.781 82.4898 224.156 83.2639 223.691C84.0098 223.242 84.9422 223.053 89.1095 221.638C90.4881 221.17 89.0832 220.397 87.5997 219.208C86.7579 218.532 85.94 217.336 86.7333 216.612C87.3898 216.013 88.0782 216.544 88.7858 217.078C92.5315 219.907 91.8348 220.219 91.5931 214.505C91.5488 213.456 91.5847 212.161 92.6676 212.185C93.8015 212.209 93.7296 213.572 93.9424 215.901C93.9718 216.221 93.8969 216.555 93.9502 216.868C94.069 217.562 93.9262 218.292 94.244 218.955C95.0973 218.805 95.3006 217.948 95.8456 217.461C96.7186 216.68 96.9195 215.672 98.1565 215.533C98.638 215.479 99.0727 215.848 99.0368 216.323C98.8617 218.638 95.6178 220.204 97.7854 220.466C101.119 220.868 103.257 220.829 103.078 222.18C102.941 223.212 101.755 223.13 100.619 223.057C95.565 222.731 95.3227 222.095 99.7425 225.721C101.626 227.266 100.412 229.25 97.7902 227.163C93.967 224.121 94.4113 224.293 95.2772 229.165C95.3335 229.483 95.4271 229.798 95.4385 230.116C95.4858 231.389 93.5557 231.837 93.2631 230.46C92.2503 225.698 92.456 224.251 91.3923 225.865C91.3809 225.858 91.3695 225.851 91.3575 225.845Z" fill="#FD8A02"/>
<path d="M254.847 103.229C256.586 103.221 258.077 103.148 259.172 103.566C260.258 103.98 260.081 105.566 259.028 105.736C257.305 106.014 254.517 105.472 254.344 105.888C254.174 106.298 254.714 106.552 254.998 106.827C256.578 108.357 257.668 109.159 258.522 110.347C259.17 111.249 257.837 112.441 256.999 111.954C256.191 111.483 255.525 110.698 252.051 107.516C250.899 106.461 250.897 108.181 250.544 110.191C250.344 111.331 249.641 112.719 248.551 112.346C247.651 112.038 247.792 111.121 247.93 110.174C248.656 105.191 249.309 105.685 244.061 108.863C243.097 109.446 241.861 110.08 241.324 109.05C240.776 107.999 241.985 107.399 244.16 105.933C244.446 105.74 244.798 105.638 245.066 105.426C245.656 104.957 246.417 104.714 246.877 104.072C246.295 103.348 245.384 103.599 244.645 103.338C243.459 102.92 242.408 103.252 241.638 102.159C241.339 101.734 241.462 101.135 241.927 100.924C244.196 99.8923 247.342 102.135 246.469 99.9618C245.341 97.1532 244.977 96.5452 244.747 95.2897C244.532 94.1054 245.932 93.546 246.63 94.5138C247.789 96.1195 248.864 99.7796 249.388 99.7562C249.934 99.7322 250.058 95.0888 250.948 94.0778C251.591 93.3469 252.505 93.6083 252.714 94.4346C253.032 95.6914 252.766 96.2808 252.279 99.5817C252.241 99.8383 252.135 100.165 252.454 100.305C252.738 100.43 252.979 100.207 253.19 100.04C254.257 99.1961 256.632 97.2594 256.756 97.185C257.93 96.4829 259.346 98.0689 258.203 99.054C254.231 102.478 252.793 103.022 254.847 103.186C254.847 103.2 254.847 103.215 254.847 103.229Z" fill="#FD8A02"/>
<path d="M278.618 71.9227C280.577 71.97 283.153 71.8555 283.001 73.345C282.895 74.3829 281.925 74.3019 280.768 74.2558C280.104 74.2288 278.239 73.9536 278.112 74.236C277.939 74.6227 278.261 74.5862 280.735 77.1201C281.459 77.8618 282.263 78.7427 281.453 79.3866C280.347 80.2657 280.24 79.6493 276.066 75.6031C275.084 74.6515 275.041 76.1565 274.682 77.9056C274.479 78.8986 273.829 80.0942 272.884 79.741C272.103 79.449 272.252 78.6461 272.395 77.8265C273.154 73.4847 273.714 73.9326 269.043 76.5829C268.185 77.0697 267.087 77.5938 266.644 76.6788C265.876 75.0994 270.732 73.637 271.625 72.4617C271.134 71.8135 270.331 72.0102 269.69 71.7638C268.664 71.3686 267.737 71.6349 267.089 70.6587C266.415 69.6417 267.932 69.2058 269.158 69.4025C272.318 69.9074 271.812 70.2635 270.284 65.9595C269.978 65.0979 269.681 64.0036 270.535 63.6996C271.456 63.3716 271.895 64.3981 272.321 65.3785C274.208 69.7311 273.79 70.191 274.922 64.9702C275.421 62.6653 277.572 62.9591 276.964 65.9835C276.06 70.4764 276.008 70.0399 279.713 67.2259C280.062 66.9615 281.083 65.9056 281.87 67.0616C282.159 67.4873 282.114 67.9826 281.658 68.3544C278.102 71.2487 276.824 71.6894 278.62 71.8855C278.619 71.8975 278.618 71.9101 278.618 71.9227Z" fill="#FD8A02"/>
<path d="M246.114 36.7886C247.652 36.2754 248.95 35.7759 250.041 35.8269C251.124 35.8772 251.429 37.3337 250.546 37.7906C249.103 38.5383 246.475 38.8705 246.443 39.289C246.412 39.7016 246.964 39.7699 247.296 39.93C249.141 40.8234 250.339 41.2162 251.441 42.0203C252.278 42.6301 251.444 44.0739 250.561 43.8863C249.71 43.7052 248.9 43.2075 244.887 41.3985C243.56 40.8001 244.059 42.3237 244.332 44.2053C244.488 45.2732 244.269 46.7062 243.195 46.6942C242.307 46.6841 242.165 45.826 242.012 44.953C241.204 40.3294 241.927 40.5764 238.205 44.9182C237.521 45.7157 236.611 46.6373 235.836 45.8812C235.023 45.0897 236.007 44.1423 237.439 42.2949C237.636 42.0407 237.918 41.8482 238.093 41.5825C238.479 40.9949 239.082 40.559 239.302 39.8569C238.576 39.385 237.843 39.8719 237.112 39.8563C235.941 39.8317 235.106 40.4313 234.106 39.689C233.717 39.4 233.651 38.8333 234.002 38.5113C235.709 36.9385 239.149 38.0071 237.743 36.3365C235.58 33.7678 233.991 32.3383 235.044 31.4725C235.847 30.8117 236.658 31.6805 237.439 32.5092C240.911 36.1962 240.654 36.8264 239.897 31.1601C239.574 28.7454 241.816 28.1236 242.309 31.4377C243.028 36.27 242.821 35.8412 245.512 31.6883C245.687 31.4185 245.834 31.1241 246.042 30.883C246.876 29.9201 248.593 30.91 247.867 32.1158C245.358 36.2886 244.221 37.206 246.099 36.7515C246.105 36.7635 246.11 36.776 246.114 36.7886Z" fill="#FD8A02"/>
</svg>
