<svg width="30" height="30" viewBox="0 0 30 30" fill="none" xmlns="http://www.w3.org/2000/svg">
<path d="M26.25 23.125C26.25 24.8513 24.8513 26.25 23.125 26.25H6.875C5.14938 26.25 3.75 24.8513 3.75 23.125V6.875C3.75 5.14875 5.14938 3.75 6.875 3.75H23.125C24.8513 3.75 26.25 5.14875 26.25 6.875V23.125Z" fill="#3F51B5"/>
<path d="M21.48 15.625H19.375V23.75H16.25V15.625H14.375V13.125H16.25V11.6188C16.2513 9.42625 17.1619 8.125 19.745 8.125H21.875V10.625H20.4456C19.44 10.625 19.375 11 19.375 11.7019V13.125H21.875L21.48 15.625Z" fill="white"/>
</svg>
