<svg width="469" height="538" viewBox="0 0 469 538" fill="none" xmlns="http://www.w3.org/2000/svg">
<g clip-path="url(#clip0)">
<path d="M237.92 374.093L250.734 370.146L251.452 372.476L238.638 376.423L237.92 374.093Z" fill="#009E55"/>
<path d="M262.551 389.464L282.82 383.221L278.873 370.407C279.455 366.912 279.194 363.166 278.153 359.788L277.256 356.875C276.467 354.312 273.724 352.862 271.161 353.651L270.462 353.866C270.346 353.902 270.346 353.902 270.229 353.938C268.177 352.657 265.918 351.95 263.489 351.933L255.782 351.756C259.034 347.82 259.965 342.56 258.458 337.667L256.807 332.308C254.977 326.367 249.716 322.121 243.442 321.63L238.863 321.255C234.937 320.934 231.093 322.118 228.029 324.592L224.454 327.479C219.777 331.343 217.817 337.814 219.647 343.755L221.297 349.113C222.804 354.006 226.65 357.795 231.436 359.255L225.164 363.737C220.46 367.099 218.472 373.069 220.159 378.544L226.904 400.444L262.551 389.464ZM279.773 381.609L271.735 384.085C274.1 381.825 275.856 379.244 277.118 376.304L277.405 375.578C277.45 375.309 277.611 375.005 277.692 374.852L279.773 381.609ZM275.823 360.505C277.259 365.165 276.991 370.094 275.191 374.602L274.905 375.328C272.576 381.019 267.774 385.304 261.833 387.134L261.367 387.278L264.699 379.875L267.289 381.245L268.418 379.112L265.675 377.661L267.099 374.416L269.384 375.625L270.513 373.492L268.075 372.202L269.866 368.08L272.609 369.531L273.737 367.397L270.842 365.866L274.666 357.163L274.81 357.629L275.707 360.541L275.823 360.505ZM272.614 355.882L268.673 364.621L266.083 363.25L264.954 365.384L267.697 366.835L265.906 370.957L262.858 369.345L261.73 371.478L264.93 373.171L263.506 376.416L260.763 374.965L259.634 377.098L262.53 378.63L258.911 386.759C258.49 386.634 258.23 386.203 258.087 385.738L257.19 382.825C255.754 378.166 256.022 373.237 257.822 368.728L258.108 368.002C260.437 362.311 265.239 358.026 271.18 356.196L271.879 355.981C272.112 355.909 272.345 355.837 272.614 355.882V355.882ZM230.664 325.694C231.408 325.209 232.071 324.878 232.85 324.51L235.398 332.781L237.728 332.063L235.18 323.792C236.032 323.658 236.766 323.559 237.654 323.541L240.775 333.675L233.786 335.828L230.664 325.694ZM247.317 334.211C248.016 333.996 248.626 334.318 248.841 335.017L250.025 338.861L245.429 342.573C242.445 344.895 238.718 346.043 235.061 345.766L229.057 345.32L227.873 341.476C227.657 340.777 227.98 340.167 228.679 339.952L247.317 334.211ZM236.353 348.302C237.625 348.293 238.862 348.167 240.027 347.808L242.323 355.264C241.705 355.327 240.97 355.425 240.316 355.372L239.93 355.363C239.393 355.273 238.855 355.184 238.434 355.059L236.353 348.302ZM242.392 347.207C243.521 346.732 244.615 346.14 245.708 345.548L247.789 352.305C247.395 352.681 247.117 353.022 246.723 353.398L246.409 353.622C245.898 354.035 245.235 354.367 244.689 354.662L242.392 347.207ZM247.75 343.899L250.698 341.46C251.147 343.745 250.825 346.013 249.929 348.074L249.437 349.374L247.75 343.899ZM233.772 348.204L235.458 353.679L234.355 352.999C232.455 351.798 230.877 349.989 229.999 347.964L233.772 348.204ZM238.031 357.478C238.569 357.568 239.142 357.774 239.644 357.747L240.03 357.756C242.799 358.051 245.595 357.189 247.834 355.352L248.148 355.127C248.542 354.751 248.936 354.374 249.331 353.998L259.081 354.183C251.878 362.269 240.695 365.713 230.191 363.082L238.031 357.478ZM256.244 338.349C257.716 343.125 256.247 348.296 252.547 351.604L251.006 351.569C251.086 351.416 251.167 351.264 251.248 351.112L252.143 349.05C253.522 346.075 253.754 342.687 252.786 339.542L251.171 334.3C251.027 333.834 250.767 333.404 250.543 333.09L253.016 329.523C253.724 330.58 254.352 331.789 254.71 332.954L256.361 338.313L256.244 338.349ZM251.25 327.516L248.338 331.728C247.801 331.639 247.182 331.702 246.6 331.881L243.105 332.958L240.27 323.755L243.425 324.059C246.391 324.165 249.098 325.5 251.25 327.516V327.516ZM226.148 329.253L228.585 327.227L231.456 336.546L227.961 337.622C227.379 337.802 226.832 338.098 226.474 338.591L221.697 336.746C222.305 333.753 223.792 331.126 226.148 329.253V329.253ZM223.627 348.396L221.976 343.037C221.582 341.756 221.456 340.519 221.447 339.246L225.498 340.804C225.372 341.226 225.399 341.728 225.543 342.194L227.193 347.552C228.162 350.697 230.26 353.367 233.075 355.051L234.975 356.252L235.432 356.493L234.178 357.39C229.221 356.621 225.098 353.172 223.627 348.396ZM222.489 377.826C222.202 376.894 221.995 375.81 221.977 374.923L227.158 377.663L226.092 382.073L223.35 380.622L222.489 377.826ZM224.354 383.884L227.707 385.657L230.043 376.264L222.272 372.153C222.872 369.545 224.43 367.152 226.625 365.583L227.683 364.875C240.311 369.02 254.173 364.75 262.28 354.218L263.553 354.209C264.825 354.199 266.206 354.54 267.353 354.951C262.245 357.417 258.178 361.604 255.975 366.874L255.689 367.6C253.647 372.565 253.326 378.148 254.94 383.391L255.873 386.419C256.125 387.235 256.609 387.978 257.29 388.534L254.145 389.503L250.198 376.689L239.714 379.918L241.866 386.907L245.361 385.831L247.155 391.655L241.331 393.45L234.513 371.316L232.183 372.034L235.413 382.518C236.023 384.498 234.975 386.479 232.994 387.089L229.5 388.166C227.519 388.776 225.539 387.728 224.929 385.747L224.354 383.884ZM251.815 390.22L249.485 390.938L246.973 382.783L243.479 383.86L242.761 381.53L248.586 379.736L251.815 390.22ZM226.364 390.407C227.663 390.9 228.936 390.89 230.217 390.495L233.712 389.419C234.993 389.024 236.015 388.2 236.848 387.178L239.001 394.167L228.517 397.396L226.364 390.407Z" fill="#009E55"/>
</g>
<g clip-path="url(#clip1)">
<path d="M383.016 367.458L380.57 368.212C379.619 367.611 378.472 367.199 377.361 366.904L370.845 365.212L371.974 363.079C373.747 359.727 372.724 355.578 369.614 353.347C368.664 352.747 367.992 351.806 367.669 350.758L365.085 342.371C362.107 332.702 351.898 327.301 342.229 330.279C332.561 333.257 327.16 343.466 330.138 353.135L332.721 361.522C333.044 362.571 333.054 363.843 332.606 364.874C331.137 368.388 332.662 372.509 336.131 374.247L338.264 375.376L333.829 380.44C330.667 383.838 329.629 388.749 330.992 393.176L335.8 408.785L390.551 391.921C392.531 391.311 393.579 389.33 392.969 387.35L387.587 369.876C386.977 367.896 384.996 366.848 383.016 367.458V367.458ZM385.257 370.594L386.693 375.254L375.043 378.842L373.608 374.182C373.393 373.483 373.715 372.874 374.414 372.658L383.734 369.788C384.432 369.573 385.042 369.895 385.257 370.594ZM382.574 386.726L381.856 384.396L384.186 383.678L384.903 386.008L382.574 386.726ZM385.621 388.338L386.339 390.668L384.009 391.385L383.291 389.056L385.621 388.338ZM375.761 381.172L378.091 380.454L378.808 382.784L376.479 383.501L375.761 381.172ZM382.751 379.019L383.468 381.348L381.138 382.066L380.421 379.736L382.751 379.019ZM377.196 385.831L379.526 385.114L380.244 387.443L377.914 388.161L377.196 385.831ZM386.516 382.961L388.845 382.243L389.563 384.573L387.233 385.29L386.516 382.961ZM385.798 380.631L385.08 378.301L387.41 377.583L388.128 379.913L385.798 380.631ZM376.958 369.324L373.697 370.329C371.716 370.938 370.668 372.919 371.278 374.9L376.661 392.373C376.768 392.723 377.028 393.153 377.252 393.466L364.205 397.485L359.003 380.594L369.753 367.462L369.717 367.345L376.958 369.324C376.842 369.36 376.958 369.324 376.958 369.324V369.324ZM356.713 364.464C353.245 367.7 347.85 367.576 344.65 364.225C343.709 363.24 343.117 362.147 342.722 360.865L339.601 350.731C339.457 350.265 339.663 349.691 339.977 349.467L346.177 344.751C346.374 344.563 346.723 344.455 346.992 344.5L354.771 344.91C355.273 344.883 355.649 345.277 355.793 345.743L358.915 355.878C359.964 358.871 359.078 362.205 356.713 364.464V364.464ZM347.286 368.643C347.86 368.849 348.397 368.938 348.971 369.144C352.35 369.761 355.845 368.685 358.29 366.273C358.685 365.897 359.159 365.368 359.401 364.911L361.319 365.341L357.048 378.39L346.095 370.157L347.286 368.643ZM367.145 366.862L361.035 374.356L363.963 366.057L367.145 366.862ZM344.473 371.932L351.259 376.985L342.493 374.2L344.473 371.932ZM334.9 365.698C335.554 364.094 335.553 362.436 335.051 360.805L332.468 352.417C329.884 344.03 334.56 335.193 342.947 332.609C351.334 330.026 360.172 334.701 362.755 343.088L365.339 351.476C365.841 353.107 366.89 354.442 368.217 355.436C370.305 356.833 371.05 359.665 369.841 361.951L368.47 364.541L360.843 362.554C361.9 360.187 362.079 357.454 361.289 354.891L358.167 344.757C357.737 343.359 356.374 342.248 354.949 342.177L347.171 341.767C346.248 341.668 345.432 341.919 344.724 342.52L338.56 347.352C337.342 348.365 336.804 349.934 337.271 351.448L340.393 361.583C341.182 364.146 342.831 366.188 345.072 367.666L339.849 373.484L339.697 373.404L337.223 371.997C334.973 370.905 333.879 368.181 334.9 365.698V365.698ZM333.322 392.458C332.21 388.847 333.033 384.894 335.568 381.945L340.558 376.199L356.673 381.312L361.876 398.203L346.732 402.867L344.22 394.713L341.89 395.431L344.402 403.585L337.412 405.738L333.322 392.458ZM378.99 391.656L378.632 390.491L380.961 389.773L381.679 392.103L380.514 392.462C379.815 392.677 379.206 392.355 378.99 391.656ZM389.833 389.591L388.668 389.95L387.951 387.62L390.281 386.903L390.639 388.068C390.855 388.767 390.532 389.376 389.833 389.591Z" fill="#009E55"/>
<path d="M342.784 390.053L355.598 386.106L356.316 388.436L343.502 392.383L342.784 390.053Z" fill="#009E55"/>
<path d="M362.588 383.953L370.742 381.442L371.46 383.772L363.306 386.283L362.588 383.953Z" fill="#009E55"/>
</g>
<g clip-path="url(#clip2)">
<path d="M493.632 371.443C492.708 369.687 490.45 368.98 488.693 369.904C488.577 369.939 488.46 369.975 488.38 370.128L487.206 370.872C485.566 370.102 483.764 369.636 481.954 369.556L470.707 369.066C471.334 366.96 471.539 364.729 471.126 362.56L473.492 360.301C474.477 359.36 474.934 357.944 474.503 356.546L473.678 353.867C473.498 353.284 473.238 352.854 472.826 352.343C471.544 351.08 469.546 350.803 468.094 351.888L462.891 334.997L460.562 335.714C461.172 337.695 460.124 339.675 458.143 340.285L446.378 343.909C443.116 344.914 441.343 348.266 442.347 351.528L444.715 359.216C442.672 359.208 441.015 360.866 440.97 362.793C440.962 363.179 441.069 363.528 441.177 363.877L442.002 366.557C442.397 367.838 443.49 368.904 444.951 369.092L448.178 369.629C449.057 371.654 450.482 373.383 452.185 374.772L443.279 381.469C438.495 384.983 436.588 390.8 438.274 396.275L444.697 417.127L499.447 400.262C501.428 399.652 502.476 397.672 501.866 395.691L497.201 380.547L480.659 385.643L495.775 375.502L493.632 371.443ZM484.778 372.513L475.773 378.475L475.693 378.627L472.951 380.492L472.556 379.211C472.162 377.929 470.79 377.204 469.509 377.598L466.946 378.388C466.364 378.567 465.736 379.015 465.53 379.589L464.438 381.839L462.305 380.71C461.695 380.388 461.041 380.334 460.458 380.514L457.896 381.303C456.614 381.698 455.889 383.069 456.283 384.35L457.36 387.845C457.755 389.127 459.126 389.852 460.407 389.457L462.97 388.668C463.553 388.489 464.18 388.04 464.386 387.467L465.514 385.333L467.647 386.462C468.257 386.784 468.911 386.838 469.494 386.659L470.192 386.443L472.004 389.839L476.238 403.585C476.345 403.935 476.605 404.365 476.83 404.678L473.102 405.826L468.078 389.518L465.749 390.235L470.772 406.544L462.501 409.092L450.779 378.903L454.193 376.321C455.412 376.966 456.828 377.423 458.172 377.646C461.399 378.183 464.66 377.179 467.026 374.92C468.011 373.978 468.925 372.804 469.57 371.585L481.704 372.056C482.86 372.083 483.783 372.181 484.778 372.513V372.513ZM469.788 383.889L468.857 384.176L466.687 382.931L467.78 380.682L470.226 379.928L470.836 381.908C470.245 382.473 469.923 383.083 469.788 383.889V383.889ZM472.611 383.53L475.98 381.217L480.184 382.856L473.41 387.365L472.191 385.063C471.931 384.633 472.101 383.942 472.611 383.53V383.53ZM478.561 379.657L483.417 376.375L487.62 378.014L482.764 381.296L478.561 379.657ZM463.309 383.972L462.217 386.222L459.654 387.011L458.577 383.516L461.14 382.727L463.309 383.972ZM483.027 390.015L483.474 387.327L489.066 385.604L488.618 388.293L483.027 390.015ZM480.464 390.805L475.338 392.383L474.621 390.054L480.911 388.116L480.464 390.805ZM447.136 391.504L446.389 382.041L448.781 380.284L459.158 406.933L451.439 397.194L451.5 392.838L447.136 391.504ZM447.117 358.732L453.022 355.127C456.776 352.823 461.113 351.997 465.415 352.713L465.684 352.758L468.482 361.844C469.702 365.805 468.521 370.25 465.448 373.11C463.674 374.804 461.111 375.593 458.575 375.227C454.542 374.556 451.064 371.546 449.844 367.585L447.117 358.732ZM469.511 354.002C470.021 353.59 470.828 353.724 471.276 354.351L471.384 354.701L472.209 357.38C472.353 357.846 472.227 358.267 471.833 358.644L470.453 359.961L468.767 354.486L469.511 354.002ZM447.095 346.239L458.744 342.651C460.026 342.256 461.047 341.432 461.88 340.41L464.894 350.195C460.279 349.703 455.709 350.601 451.722 352.977L446.363 356.285L444.677 350.81C444.067 348.83 445.115 346.849 447.095 346.239V346.239ZM444.251 365.992L443.426 363.312C443.354 363.079 443.318 362.963 443.363 362.694C443.453 362.156 443.927 361.627 444.582 361.681L445.469 361.663L447.155 367.138L445.273 366.825C444.736 366.735 444.359 366.341 444.251 365.992ZM440.604 395.557C439.312 391.363 440.691 386.73 444.149 383.879L444.932 393.459L449.028 394.748L448.876 397.983L458.54 410.312L446.309 414.079L440.604 395.557ZM498.73 397.933L480.091 403.674C479.392 403.889 478.783 403.566 478.568 402.868L476.056 394.713L497.024 388.255L499.536 396.409C499.751 397.108 499.429 397.717 498.73 397.933ZM496.307 385.925L491.181 387.503L491.628 384.815L495.589 383.595L496.307 385.925ZM490.049 376.373L485.845 374.735L489.761 372.126L490.11 372.018C490.692 371.839 491.266 372.045 491.562 372.591L492.746 374.777L490.049 376.373Z" fill="#009E55"/>
</g>
<g clip-path="url(#clip3)">
<path d="M180.99 495.326L183.32 494.608L184.038 496.938L181.708 497.656L180.99 495.326Z" fill="#009E55"/>
<path d="M182.425 499.985L184.755 499.268L185.472 501.598L183.142 502.315L182.425 499.985Z" fill="#009E55"/>
<path d="M183.86 504.645L186.19 503.928L186.908 506.257L184.578 506.975L183.86 504.645Z" fill="#009E55"/>
<path d="M201.435 476.402L192.617 475.929C193.226 474.594 193.682 473.178 193.906 471.834L199.006 473.069L200.081 473.248L200.412 472.253C202.338 467.323 202.578 461.892 201.035 456.883L200.784 456.068C196.837 443.254 183.123 435.999 170.309 439.946C157.495 443.893 150.241 457.606 154.187 470.42L154.439 471.236C155.982 476.245 159.272 480.716 163.601 483.591L164.435 484.227L168.592 479.503C169.569 480.605 170.743 481.519 171.998 482.28L164.973 487.633C159.983 491.721 157.745 498.532 159.682 504.823L163.88 518.452L199.993 507.329L219.796 501.229L215.598 487.6C215.454 487.134 215.311 486.668 215.015 486.121L215.992 485.565L215.244 472.786L206.839 477.798C205.199 477.028 203.281 476.598 201.435 476.402V476.402ZM211.268 483.066L213.203 479.409L213.437 484.311L210.31 486.167L206.958 484.394L206.733 480.764L210.917 478.2L208.982 481.857L211.268 483.066ZM199.275 504.999C198.459 505.25 197.698 504.847 197.482 504.148C197.375 503.799 197.383 503.413 197.545 503.109L203.868 491.34L206.306 492.63L199.983 504.398C199.938 504.667 199.624 504.891 199.275 504.999V504.999ZM207.551 490.461L205.113 489.171L206.403 486.733L208.841 488.023L207.551 490.461ZM204.411 479.439L204.673 484.843L195.528 501.944C194.803 503.316 194.919 504.938 195.897 506.04L192.285 507.152L187.226 490.727C191.429 489.05 194.672 485.5 195.737 481.09L196.372 478.599L201.185 478.902C202.341 478.929 203.3 479.143 204.411 479.439V479.439ZM165.729 466.483C165.549 465.9 165.872 465.291 166.419 464.995C170.2 463.193 173.389 460.297 175.476 456.721C179.214 458.503 183.516 459.219 187.62 458.465C188.238 458.402 188.848 458.724 189.027 459.307L189.852 461.986L186.824 462.919C185.578 461.772 183.776 461.307 182.145 461.809L181.679 461.952C180.165 462.419 178.902 463.701 178.481 465.233L178.275 465.807L177.782 465.449C176.572 464.418 174.806 464.069 173.292 464.536L172.826 464.679C171.195 465.182 169.968 466.58 169.583 468.229L166.554 469.162L165.729 466.483ZM185.91 465.751C186.305 467.032 185.58 468.404 184.298 468.798L183.832 468.942C183.017 469.193 182.21 469.059 181.529 468.503L180.319 467.473L180.74 465.941C180.99 465.098 181.581 464.533 182.397 464.282L182.863 464.139C184.144 463.744 185.516 464.47 185.91 465.751ZM177.523 468.334L177.102 469.867C176.852 470.709 176.26 471.274 175.445 471.525L174.979 471.669C173.697 472.064 172.326 471.338 171.931 470.057C171.537 468.775 172.262 467.404 173.544 467.009L174.01 466.866C174.825 466.615 175.632 466.749 176.313 467.304L177.523 468.334ZM167.272 471.492L169.602 470.774C170.391 473.337 173.134 474.788 175.697 473.999L176.162 473.855C177.677 473.389 178.94 472.107 179.361 470.574L179.567 470.001L180.06 470.359C181.27 471.389 183.035 471.738 184.55 471.272L185.016 471.128C187.579 470.339 189.03 467.596 188.24 465.033L190.57 464.316L191.144 466.18C192.436 470.373 191.29 474.935 188.289 478.028L187.975 478.252C185.171 481.156 181.094 482.412 177.142 481.589L176.873 481.544C172.652 480.676 169.102 477.433 167.81 473.239L167.272 471.492ZM176.587 483.928L176.856 483.973C179.159 484.411 181.552 484.312 183.765 483.63C186.095 482.912 188.129 481.648 189.786 479.99L190.1 479.766C190.494 479.389 190.969 478.86 191.327 478.367L194.06 478.546L193.55 480.616C191.822 487.015 185.335 490.799 178.936 489.071C177.135 488.606 175.575 487.683 174.213 486.572L172.626 485.148L174.785 483.462C175.206 483.588 175.897 483.758 176.587 483.928ZM164.201 480.983C160.714 478.359 158.177 474.676 156.768 470.518L156.517 469.703C152.965 458.17 159.494 445.828 171.027 442.276C182.56 438.724 194.902 445.253 198.454 456.786L198.705 457.601C199.997 461.795 199.971 466.267 198.449 470.434L194.04 469.369C194.03 468.096 193.752 466.779 193.357 465.498L191.24 458.625C190.702 456.877 188.954 455.758 187.135 456.063C183.497 456.673 179.769 456.164 176.452 454.507L179.113 449.479L176.979 448.35L173.594 454.75C171.74 458.254 168.783 461.078 165.199 462.692C163.523 463.463 162.708 465.372 163.247 467.12L165.328 473.876C165.723 475.158 166.35 476.367 167.094 477.541L164.201 480.983ZM162.012 504.105C160.361 498.746 162.269 492.93 166.587 489.559L170.395 486.6L172.322 488.303C175.8 491.313 180.362 492.458 184.78 491.48L189.839 507.905L177.142 511.816L172.836 497.838L170.506 498.555L174.812 512.534L165.493 515.405L162.012 504.105ZM213.268 488.317L216.749 499.617L203.119 503.815L211.377 488.389L212.981 487.385L213.268 488.317Z" fill="#009E55"/>
</g>
<g clip-path="url(#clip4)">
<path d="M316.674 478.835C316.064 476.855 313.5 475.987 310.938 476.776C308.375 477.565 306.744 479.726 307.354 481.706L308.431 485.201L301.969 484.513C302.973 482.801 303.402 480.883 303.446 478.956L306.089 476.356C307.075 475.415 307.531 473.999 307.101 472.601L306.455 470.504C305.845 468.524 303.864 467.476 301.884 468.086L301.418 468.229L300.934 469.144L300.001 466.115L302.331 465.397L301.255 461.902C299.03 454.68 292.28 449.744 284.797 449.881C284.026 448.205 282.117 447.39 280.37 447.928L278.04 448.646C276.293 449.184 275.173 450.932 275.478 452.751C269.215 456.849 266.413 464.727 268.637 471.949L269.714 475.444L272.043 474.726L272.976 477.755L272.062 477.271L271.596 477.415C269.616 478.025 268.568 480.006 269.178 481.986L269.824 484.083C270.218 485.364 271.312 486.43 272.773 486.618L276.42 487.28C277.541 488.848 278.975 490.192 280.768 491.043L272.391 498.215C268.377 501.747 266.748 507.223 268.327 512.348L272.776 526.793L331.021 508.853L320.58 474.954L317.93 482.913L316.674 478.835ZM313.918 494.734L310.617 484.017C312.311 484.133 313.942 483.631 315.277 482.582L316.569 486.775L313.918 494.734ZM311.655 479.106C313.053 478.675 314.2 479.087 314.344 479.553C314.487 480.019 313.771 481.005 312.373 481.436C310.975 481.866 309.828 481.454 309.684 480.988C309.541 480.522 310.257 479.536 311.655 479.106ZM310.117 490.676L304.268 498.6C303.793 499.128 303.049 499.613 302.35 499.828L298.39 501.048L298.308 499.542C298.281 499.04 298.604 498.431 299.186 498.252L300.817 497.749C302.681 497.175 304.141 495.705 304.84 493.832L306.953 487.442L309.337 487.728L310.234 490.64L310.117 490.676ZM295.916 499.642L296.033 502.922L294.285 500.144C293.433 498.621 291.712 498.003 290.081 498.505L288.45 499.008C287.286 499.366 286.058 499.107 285.188 498.354L280.186 494.538L283.295 491.795L287.248 492.618C290.931 493.397 294.659 492.249 297.266 489.532L300.07 486.628L304.184 487.147L302.196 493.116C301.784 494.263 300.915 495.168 299.867 495.491L298.236 495.994C296.838 496.424 295.763 497.903 295.916 499.642ZM293.031 502.698L289.07 503.918C288.371 504.134 287.484 504.152 286.758 503.865L274.363 499.648L278.296 496.268L283.638 500.362C285.153 501.554 287.304 501.911 289.168 501.337L290.799 500.835C291.381 500.656 291.955 500.862 292.251 501.408L293.031 502.698ZM303.103 470.389C303.605 470.362 303.982 470.756 304.125 471.222L304.771 473.319C304.915 473.785 304.789 474.206 304.395 474.582L303.015 475.9L302.979 475.784L301.975 472.522L303.103 470.389ZM271.559 472.325C271.594 470.783 272.589 469.457 274.103 468.99L295.071 462.532C296.586 462.065 298.154 462.602 299.051 463.857L271.559 472.325ZM276.232 455.198L278.492 462.537L280.822 461.819L277.952 452.5C277.736 451.801 278.059 451.191 278.758 450.976L281.087 450.258C281.786 450.043 282.396 450.365 282.611 451.064L285.482 460.384L287.811 459.666L285.551 452.327C290.829 452.487 295.58 455.488 297.938 460.246C296.791 459.834 295.519 459.843 294.354 460.202L273.385 466.66C272.22 467.019 271.163 467.728 270.446 468.714C269.719 463.453 271.958 458.3 276.232 455.198ZM273.175 484.198C272.754 484.073 272.297 483.831 272.154 483.365L271.508 481.269C271.364 480.803 271.57 480.229 271.884 480.005L274.017 481.133L275.022 484.395L275.057 484.512L273.175 484.198ZM277.351 483.677L274.373 474.009L297.671 466.832L300.65 476.501C301.582 479.53 300.777 482.712 298.645 484.899L295.724 487.839C293.672 489.874 290.76 490.771 287.919 490.243L283.85 489.456C280.74 488.883 278.248 486.59 277.351 483.677V483.677ZM270.62 511.514C269.544 508.02 270.323 504.336 272.508 501.495L286.051 506.124C287.315 506.5 288.623 506.607 289.788 506.248L295.263 504.562L298.851 516.211L295.356 517.287L292.486 507.968L284.099 510.551L282.018 507.111L279.832 508.294L281.652 511.305L279.672 511.915L282.542 521.234L274.388 523.746L270.62 511.514ZM290.874 511.015L291.591 513.345L283.437 515.857L282.719 513.527L290.874 511.015ZM284.155 518.187L292.309 515.675L293.027 518.005L284.872 520.517L284.155 518.187ZM301.181 515.493L297.593 503.844L303.068 502.158C304.349 501.763 305.407 501.055 306.087 499.952L310.978 493.472L312.557 498.597L307.588 513.52L301.181 515.493ZM320.475 482.894L327.974 507.241L310.5 512.623L319.185 486.99L319.15 486.873L320.475 482.894Z" fill="#009E55"/>
<path d="M324.926 505.628L320.154 490.135L314.558 508.822L324.926 505.628ZM321.879 504.016L318.267 505.128L320.192 498.541L321.879 504.016Z" fill="#009E55"/>
</g>
<g clip-path="url(#clip5)">
<path d="M431.477 491.862L430.274 485.473L424.315 488.073C421.744 489.248 419.916 491.596 419.586 494.249L411.134 492.899L411.251 492.863C412.792 491.24 413.347 488.901 412.701 486.804L415.38 484.321C416.168 483.568 416.463 482.457 416.14 481.408L415.208 478.379C414.992 477.68 414.428 477.089 413.782 476.65C412.868 476.167 411.595 476.176 410.771 476.812L409.83 477.485L408.897 474.456L411.227 473.738C413.208 473.128 414.255 471.148 413.646 469.167C413.036 467.187 411.055 466.139 409.074 466.749L406.512 467.538L401.069 457.736C399.401 454.806 395.762 453.759 392.797 455.31C392.599 455.498 392.25 455.606 392.053 455.794L389.777 457.515C389.069 458.116 388.254 458.367 387.331 458.269L384.481 458.126C381.093 457.894 378.182 460.449 378.066 463.801C378.021 464.07 378.013 464.455 378.084 464.688L379.1 475.854L376.421 476.679C374.441 477.289 373.393 479.27 374.003 481.25C374.613 483.231 376.594 484.279 378.574 483.669L380.904 482.951L381.837 485.98L380.681 485.953C379.524 485.927 378.548 486.483 378.1 487.513C377.778 488.123 377.643 488.93 377.895 489.745L378.828 492.774C379.15 493.822 380.02 494.575 381.095 494.754L384.707 495.299C385.353 497.396 387.128 499.018 389.315 499.492L389.431 499.456L380.956 507.551C377.247 511.244 375.931 516.496 377.438 521.389L381.672 535.135L427.103 521.141C434.209 518.952 438.159 511.486 435.971 504.38C435.073 501.468 433.28 498.959 430.699 497.203C431.621 495.644 431.935 493.762 431.477 491.862V491.862ZM425.383 490.295L428.537 488.941L429.192 492.311C429.748 494.945 428.261 497.571 425.735 498.477L422.113 496.659C421.557 494.025 422.927 491.434 425.383 490.295ZM415.407 516.708C415.085 517.318 414.269 517.569 413.543 517.282C413.239 517.121 413.014 516.808 412.907 516.458C412.799 516.109 412.808 515.723 412.969 515.419L421.594 499.115L424.032 500.405L415.407 516.708ZM412.152 478.81C412.349 478.622 412.618 478.667 412.806 478.864L412.842 478.981L413.775 482.009C413.811 482.126 413.766 482.395 413.649 482.431L411.911 484.241L410.584 479.931L412.152 478.81ZM380.361 464.625C380.136 462.653 381.605 460.798 383.729 460.654C383.845 460.618 384.114 460.663 384.231 460.627L387.081 460.769C388.506 460.84 390.02 460.374 391.158 459.513L393.55 457.756C395.199 456.483 397.466 456.805 398.739 458.454C398.891 458.534 398.963 458.767 398.999 458.884L404.182 468.256L381.349 475.289L380.361 464.625ZM376.368 480.649C376.153 479.95 376.476 479.341 377.175 479.126L409.792 469.079C410.491 468.864 411.1 469.186 411.316 469.885C411.531 470.584 411.209 471.193 410.51 471.409L377.892 481.455C377.193 481.671 376.584 481.348 376.368 480.649ZM406.568 475.174L408.577 481.697L405.514 487.487C404.869 488.706 403.462 489.522 402.037 489.451L400.612 489.38C399.035 489.228 397.521 489.694 396.302 490.707L395.164 491.568C394.026 492.429 392.44 492.662 391.185 491.901L385.279 488.873L383.269 482.35L406.568 475.174ZM381.534 492.45C381.381 492.37 381.229 492.289 381.193 492.173L380.26 489.144C380.189 488.911 380.35 488.606 380.583 488.534L380.699 488.498L382.626 488.543L383.954 492.853L381.534 492.45ZM387.073 494.698L386.283 492.135L389.94 494.07C392.074 495.198 394.699 495.027 396.626 493.414L397.763 492.553C398.471 491.952 399.403 491.665 400.326 491.764L401.751 491.835C404.216 491.969 406.518 490.749 407.647 488.616L409.582 484.959L410.371 487.522C410.766 488.803 410.426 490.183 409.44 491.125L403.993 496.629C402.255 498.439 399.692 499.229 397.353 498.674L389.753 497.189C388.525 496.929 387.467 495.979 387.073 494.698V494.698ZM396.95 501.094C400.213 501.747 403.591 500.706 405.92 498.331L409.235 495.014L411.001 495.363L410.858 496.555C410.223 502.362 408.397 508.027 405.62 513.091C400.439 510.35 395.859 506.659 391.986 502.368L391.197 501.463L392.46 500.181L396.95 501.094ZM394.933 528.499L392.063 519.18L389.733 519.897L392.603 529.217L383.284 532.087L379.768 520.671C378.548 516.71 379.649 512.417 382.722 509.558L389.307 503.193L390.06 503.981C394.04 508.622 398.925 512.474 404.375 515.26L406.66 516.469L407.87 514.183C410.772 508.698 412.562 502.917 413.358 496.805L413.537 495.73L419.99 496.803L420.133 497.269L410.836 514.29C409.869 516.119 410.586 518.448 412.415 519.416C413.329 519.899 414.369 519.962 415.3 519.675L415.766 519.531C416.752 520.248 417.936 520.776 419.047 521.072L394.933 528.499ZM424.217 519.224L424.065 519.143C423.24 518.122 423.392 516.545 424.53 515.684C425.551 514.859 427.129 515.011 427.989 516.149C428.402 516.66 428.617 517.359 428.447 518.049C427.748 518.264 427.085 518.596 426.386 518.811C425.687 519.026 424.952 519.125 424.217 519.224V519.224ZM433.552 508.951C432.271 509.346 430.899 508.62 430.505 507.339C430.11 506.058 430.836 504.686 432.117 504.292C432.466 504.184 432.968 504.157 433.39 504.282L433.641 505.098C433.999 506.263 434.125 507.499 434.099 508.655C433.902 508.844 433.785 508.879 433.552 508.951ZM431.982 501.782C429.311 502.222 427.556 504.804 427.96 507.358C428.4 510.028 430.981 511.784 433.535 511.38C432.953 513.217 431.95 514.929 430.57 516.247C430.57 516.247 430.57 516.247 430.534 516.13C429.745 513.568 427.002 512.117 424.439 512.906C421.877 513.695 420.426 516.438 421.215 519.001L421.251 519.117C419.907 518.894 418.607 518.401 417.388 517.756L426.488 500.924C427.501 500.484 428.361 499.964 429.149 499.211C430.252 499.892 431.157 500.761 431.982 501.782V501.782Z" fill="#009E55"/>
</g>
<g clip-path="url(#clip6)">
<path d="M443.053 75.3401L431.439 74.071C432.092 72.4667 432.441 70.7012 432.288 68.9626L435.048 66.3271C436.033 65.3858 436.49 63.9697 436.059 62.5719L435.629 61.174C435.019 59.1936 433.038 58.1457 431.058 58.7557C430.825 58.8274 430.475 58.9351 430.278 59.1233L429.929 59.231L429.211 56.9012C432.383 54.7763 433.744 50.9134 432.632 47.3022L432.596 47.1857C431.806 44.6229 429.494 42.9119 426.949 42.9306L418.856 42.7448C413.578 42.5851 408.452 44.1638 404.178 47.2658L397.593 51.9727C395.478 53.3892 394.565 56.2214 395.319 58.6677C396.359 62.046 399.237 64.3482 402.776 64.6608L403.547 64.6785L404.265 67.0084L403.879 66.9995C401.872 67.1077 400.367 68.8467 400.475 70.854C400.502 71.3559 400.574 71.5889 400.682 71.9383L401.112 73.3362C401.507 74.6176 402.6 75.6837 404.061 75.8715L407.825 76.4977C408.794 77.9851 410.076 79.2483 411.402 80.2426L402.514 87.8268C398.501 91.3589 396.871 96.835 398.45 101.961L404.693 122.23L460.609 105.007L454.33 84.6211C452.787 79.612 448.323 75.8852 443.053 75.3401V75.3401ZM433.769 76.6692L433.037 83.3997L425.849 80.7671C426.395 80.4712 426.906 80.0588 427.381 79.5299L428.286 78.741C429.074 77.988 429.826 77.1185 430.31 76.2042L433.769 76.6692ZM431.542 61.1573C432.089 60.8614 432.896 60.9955 433.191 61.5421L433.263 61.7751L433.694 63.173C433.837 63.639 433.712 64.0602 433.318 64.4367L431.974 65.871C431.902 65.638 431.83 65.405 431.759 65.172L430.682 61.6773L431.542 61.1573ZM404.464 73.4517C404.043 73.3264 403.586 73.0846 403.442 72.6186L403.011 71.2207C402.796 70.5218 403.119 69.9123 403.818 69.697L404.05 69.6252L405.054 69.5712L406.131 73.0659L406.346 73.7648L404.464 73.4517ZM403.986 62.3753L402.946 62.3128C400.446 62.0627 398.285 60.4323 397.648 57.9501C397.182 56.4357 397.719 54.8673 399.09 53.9348L405.559 49.2639C409.403 46.4219 414.062 44.9866 418.839 45.1734L426.779 45.2786C428.437 45.2781 429.799 46.389 430.266 47.9033L430.338 48.1363C431.163 50.8156 430.017 53.7195 427.669 55.2079L427.131 55.1184C418.85 53.0776 410.113 55.7687 404.299 62.1511L403.986 62.3753ZM425.734 57.2069L423.262 60.7744C422.823 61.4197 422.115 62.0204 421.299 62.2715L412.097 65.1062C411.165 65.3932 410.125 65.3308 409.327 64.8113L406.432 63.2797C411.449 58.0356 418.788 55.7751 425.734 57.2069V57.2069ZM408.46 72.3483L406.523 66.0578L408.199 66.9445C409.57 67.6699 411.3 67.9024 412.814 67.436L422.017 64.6014C423.299 64.2067 424.436 63.346 425.234 62.2076L427.267 59.2855L429.312 65.9255C430.532 69.8862 429.431 74.1792 426.358 77.0389L425.453 77.8278C423.482 79.7103 420.803 80.5356 418.114 80.0883L417.191 79.99C413.042 79.3549 409.68 76.309 408.46 72.3483V72.3483ZM425.178 86.4579C424.856 87.0674 424.157 87.2827 423.547 86.9603L420.805 85.5093L423.035 82.3989L426.629 83.7152L425.178 86.4579ZM429.079 94.5671C427.609 94.7647 426.211 95.1952 424.885 95.8588L423.682 89.4695C424.722 89.5319 425.654 89.2449 426.478 88.6083L429.079 94.5671ZM413.571 81.4876C414.602 81.9354 415.597 82.2667 416.672 82.4456L417.864 82.5886L419.827 82.7494L415.366 88.9701L410.973 83.8184L413.571 81.4876ZM417.955 115.594L414.367 103.945L412.037 104.663L415.625 116.312L406.306 119.183L400.744 101.126C399.452 96.9328 400.75 92.4516 404.092 89.6366L409.127 85.2797L415.546 92.8684L419.407 87.5978L420.931 88.4039L422.654 97.3112C417.467 101.587 416.752 109.205 421.028 114.393C421.064 114.509 421.181 114.473 421.216 114.59L417.955 115.594ZM430.769 111.647L423.896 113.764C421.592 111.668 420.354 108.478 420.891 105.252L429.629 107.534L430.885 111.612L430.769 111.647ZM421.446 102.913C423.488 97.9473 429.133 95.5707 434.062 97.496C434.636 97.702 435.246 98.0244 435.891 98.4634L430.068 105.231L421.446 102.913ZM439.972 108.813L433.099 110.93L431.879 106.969L437.818 100.166C439.925 102.45 440.697 105.784 439.972 108.813ZM457.562 103.395L448.242 106.265L444.654 94.6162L442.324 95.3338L445.913 106.983L442.534 108.023C443.303 101.41 438.623 95.326 431.893 94.5931C431.776 94.629 431.74 94.5125 431.624 94.5484L428.037 86.2151L428.843 84.6914L435 86.8762L436.037 76.9912L442.651 77.7599C446.997 78.2067 450.628 81.2974 451.884 85.3746L457.445 103.431L457.562 103.395Z" fill="#009E55"/>
</g>
<g clip-path="url(#clip7)">
<path d="M392.72 153.715C391.071 153.33 389.574 153.026 388.194 152.686L381.95 132.416C378.972 122.748 368.763 117.347 359.095 120.325C349.426 123.303 344.025 133.512 347.003 143.181L353.246 163.45C352.261 164.391 351.195 165.485 350.048 166.731C346.689 170.317 345.453 175.416 346.889 180.076L352.665 198.831L408.581 181.608L402.804 162.853C401.369 158.193 397.479 154.673 392.72 153.715V153.715ZM349.333 142.463C346.749 134.076 351.425 125.238 359.812 122.655C368.2 120.071 377.037 124.747 379.621 133.134L385.469 152.122C381.938 151.424 379.787 151.066 378.443 150.843C379.912 147.329 380.269 143.52 379.121 139.793L377.291 133.852C376.968 132.803 376.179 131.898 375.032 131.486L363.255 127.206L363.049 129.438C362.746 132.592 360.793 135.362 357.872 136.645L354.019 138.214C352.307 138.869 351.376 140.814 351.95 142.677L353.529 147.803C354.641 151.414 356.999 154.514 360.306 156.557C359.321 157.498 357.744 159.004 355.217 161.568L349.333 142.463ZM374.026 153.479L372.995 154.689C371.49 156.428 369.16 157.145 366.938 156.555L365.405 156.134C360.843 154.988 357.222 151.512 355.858 147.085L354.28 141.96C354.1 141.377 354.423 140.768 354.969 140.472L358.822 138.903C362.326 137.441 364.789 134.259 365.335 130.647L374.208 133.781C374.629 133.906 374.853 134.22 374.961 134.569L376.827 140.627C378.226 145.17 377.152 149.965 374.026 153.479ZM380.884 162.08C381.099 162.779 380.777 163.388 380.078 163.604C379.379 163.819 378.769 163.496 378.554 162.797C378.339 162.099 378.661 161.489 379.36 161.274C380.059 161.058 380.668 161.381 380.884 162.08ZM362.432 193.272L354.278 195.784L349.218 179.358C348.214 176.097 348.759 172.485 350.829 169.679L357.516 177.313L362.432 193.272ZM364.762 192.554L359.667 176.013L352.531 167.752C357.942 162.131 360.585 159.532 361.884 158.366L364.037 165.356C362.29 167.552 361.762 170.393 362.587 173.072L364.668 179.829L368.163 178.752L367.446 176.422L366.281 176.781L364.917 172.355C364.343 170.491 364.62 168.492 365.812 166.977C367.649 167.559 369.003 169.056 369.577 170.919L370.94 175.346L369.775 175.705L370.493 178.035L373.988 176.958L371.907 170.202C371.081 167.522 369.046 165.471 366.367 164.638L364.465 158.464C364.617 158.545 364.734 158.509 364.886 158.59L366.419 159.01C369.448 159.735 372.71 158.731 374.806 156.427L375.836 155.217C375.961 155.06 375.997 155.038 376.114 154.876L377.549 159.536C375.901 160.809 375.579 163.076 376.816 164.608C378.089 166.257 380.356 166.579 381.888 165.342C383.537 164.069 383.859 161.801 382.622 160.269C381.949 159.328 380.919 158.881 379.879 158.818L378.193 153.343C379.922 153.575 383.57 154.238 391.206 155.839L390.017 165.644C389.9 165.68 389.784 165.716 389.667 165.751L384.775 167.259C383.843 167.546 383.018 168.182 382.651 169.06L377.976 177.898C377.815 178.203 377.618 178.391 377.268 178.499L374.705 179.288L375.423 181.618L377.986 180.828C378.918 180.541 379.742 179.905 380.109 179.027L382.286 174.913L382.86 176.776C383.47 178.757 385.451 179.805 387.431 179.195L388.596 178.836C390.576 178.226 391.624 176.245 391.014 174.265L389.22 168.44L390.385 168.081C391.084 167.866 391.693 168.188 391.909 168.887L392.806 171.8L397.968 173.653C398.389 173.779 398.614 174.092 398.721 174.442L399.08 175.607C399.295 176.305 398.973 176.915 398.274 177.13L393.381 178.637C392.449 178.924 391.625 179.561 391.258 180.439L388.759 185.163L364.762 192.554ZM386.89 169.158L388.684 174.982C388.9 175.681 388.577 176.291 387.878 176.506L386.713 176.865C386.014 177.08 385.405 176.758 385.19 176.059L383.898 171.865L384.785 170.189C384.946 169.884 385.143 169.696 385.492 169.588L386.89 169.158ZM405.534 179.996L392.021 184.158L393.391 181.568C393.552 181.263 393.749 181.075 394.099 180.967L398.991 179.46C400.972 178.85 402.02 176.869 401.41 174.889L401.051 173.724C400.728 172.676 399.939 171.771 398.792 171.359L394.777 169.917L394.238 168.17C393.951 167.238 393.351 166.53 392.437 166.046L393.545 156.394C396.834 157.549 399.317 160.228 400.322 163.49L405.417 180.032L405.534 179.996Z" fill="#009E55"/>
</g>
<g clip-path="url(#clip8)">
<path d="M503.623 163.606C502.808 163.857 502.145 164.189 501.401 164.673L488.872 162.921C490.511 160.375 491.236 157.346 490.841 154.406L493.511 150.651C494.227 149.665 494.37 148.473 494.047 147.424L493.688 146.259C493.078 144.279 491.098 143.231 489.117 143.841L487.952 144.2L487.594 143.035L484.587 129.549C484.318 127.846 482.687 126.69 480.912 126.727L477.901 126.889C471.144 127.312 464.504 129.357 458.68 132.809L456.1 134.37C454.729 135.302 454.03 137.175 454.685 138.887L459.752 151.611L460.111 152.776L458.946 153.134C456.966 153.744 455.918 155.725 456.528 157.706L456.887 158.87C457.21 159.919 457.998 160.824 459.146 161.236L463.466 162.839C464.909 165.455 467.213 167.551 469.884 168.769L460.316 177.456C456.535 180.916 455.022 186.356 456.565 191.366L461.445 207.208L517.36 189.985L512.767 175.074C514.899 171.229 513.545 166.417 509.699 164.286C507.951 163.166 505.72 162.96 503.623 163.606V163.606ZM492.762 195.011L489.966 195.872L484.656 178.632C484.512 178.166 484.638 177.744 484.915 177.404L495.809 166.396L499.269 166.861C497.952 168.797 497.702 171.297 498.383 173.51L499.137 175.957L491.963 189.518C491.398 190.585 491.255 191.776 491.614 192.941L491.686 193.174C491.901 193.873 492.35 194.5 492.762 195.011V195.011ZM460.226 146.108L464.526 143.508C468.944 140.872 473.953 139.329 479.204 138.987L484.223 138.717L485.03 142.167L481.634 142.32C475.576 142.528 469.635 144.358 464.51 147.594L461.616 149.379L460.226 146.108ZM477.098 136.702C475.359 136.855 473.692 137.241 472.026 137.627L469.873 130.637C471.853 130.027 473.789 129.686 475.76 129.462L477.098 136.702ZM469.696 138.344C468.065 138.847 466.506 139.582 464.983 140.434L462.05 133.812C463.806 132.889 465.598 132.081 467.543 131.355L469.696 138.344ZM489.951 146.135C490.65 145.92 491.26 146.242 491.475 146.941L491.834 148.106C491.942 148.456 491.933 148.841 491.655 149.182L490.222 151.154L488.786 146.494L489.951 146.135ZM481.047 129.236C481.666 129.173 482.195 129.648 482.338 130.114L483.702 136.198L479.571 136.451L478.269 129.326L481.047 129.236ZM457.516 136.484L459.864 134.996L462.796 141.618L459.239 143.734L456.943 137.936C456.764 137.354 456.97 136.78 457.516 136.484V136.484ZM459.216 158.153L458.858 156.988C458.642 156.289 458.965 155.68 459.664 155.464L460.829 155.105L462.264 159.765L459.969 158.941C459.548 158.816 459.324 158.502 459.216 158.153ZM464.773 159.63L462.369 151.825L465.774 149.628C470.585 146.616 476.06 144.929 481.733 144.713L485.784 144.613L488.188 152.418C489.3 156.029 488.441 159.865 486.022 162.778L483.129 166.22C481.624 167.959 479.177 168.713 476.838 168.158L472.509 166.94C468.79 166.045 465.885 163.241 464.773 159.63ZM458.975 190.496C457.719 186.418 458.901 181.973 462.126 179.194L466.615 175.133L476.958 179.727C477.263 179.888 477.487 180.202 477.595 180.552L478.671 184.046L481.001 183.329L479.888 179.717C479.566 178.669 478.813 177.881 477.898 177.397L468.586 173.25L472.68 169.566L476.167 170.533C479.384 171.455 482.762 170.414 484.903 167.842L487.242 165.081L492.968 165.868L483.337 175.594C482.352 176.535 482.012 177.916 482.407 179.197L487.753 196.554L475.987 200.178L473.117 190.859L470.787 191.576L473.657 200.896L463.173 204.125L458.975 190.496ZM514.429 188.337L500.567 192.607L505.958 179.468L508.288 178.75C509.336 178.427 510.196 177.907 511.021 177.271L514.429 188.337ZM507.57 176.42L504.075 177.497L497.905 192.662C497.457 193.692 496.212 194.204 495.181 193.756C494.608 193.55 494.195 193.039 494.016 192.457L493.944 192.224C493.765 191.641 493.854 191.104 494.096 190.646L501.754 176.171L500.713 172.793C499.816 169.881 501.428 166.833 504.341 165.936C507.253 165.039 510.3 166.651 511.197 169.564C512.095 172.476 510.482 175.523 507.57 176.42Z" fill="#009E55"/>
</g>
<g clip-path="url(#clip9)">
<path d="M294.767 270.767L305.251 267.538L305.968 269.867L295.484 273.097L294.767 270.767Z" fill="#009E55"/>
<path d="M340.645 254.085L340.251 252.803C338.6 247.445 333.751 243.709 328.284 243.352L318.005 242.692C319.259 240.138 319.751 237.18 319.275 234.393L321.361 227.501C321.656 226.39 321.647 225.117 321.288 223.952L318.777 215.798C317.808 212.653 315.199 210.395 311.973 209.858L310.091 209.545C308.746 209.322 307.51 209.447 306.228 209.842L288.405 215.332C287.124 215.727 285.95 216.471 285.045 217.26L283.666 218.578C281.3 220.837 280.45 224.287 281.383 227.316L283.93 235.587C284.289 236.752 284.998 237.809 285.867 238.561L291.469 243.085C292.644 245.657 294.599 247.861 297.189 249.231L289.062 255.561C284.627 258.967 282.684 264.668 284.335 270.026L290.83 291.111L331.601 278.553C333.465 277.979 334.666 276.078 334.557 274.071L334.333 272.099C334.306 271.598 334.489 271.158 335.072 270.979C335.56 270.829 336.053 271.059 336.313 271.489L337.201 273.129C338.349 275.199 340.876 275.951 342.946 274.803C344.352 273.987 345.275 272.428 345.158 270.806L344.5 259.147C344.428 257.256 343.424 255.652 341.945 254.577C341.564 254.337 341.248 254.174 340.645 254.085V254.085ZM337.921 253.521L337.993 253.754C337.607 253.745 337.258 253.853 336.792 253.996L336.326 254.14C333.996 254.857 332.518 257.098 332.617 259.491C332.638 260.013 332.422 260.475 331.902 260.625C331.296 260.82 330.809 260.61 330.52 260.137C329.256 258.103 326.774 257.082 324.444 257.8L323.978 257.943C320.833 258.912 319.059 262.264 320.028 265.409C320.171 265.875 320.315 266.341 320.575 266.771L326.591 276.78C326.78 276.977 326.851 277.21 327.075 277.523L321.6 279.21L315.823 260.455C315.465 259.29 314.559 258.421 313.448 258.125L312.417 257.678L323.84 245.486L328.15 245.817C332.694 246.075 336.593 249.211 337.921 253.521V253.521ZM308.341 262.249L291.429 256.617L294.412 254.296L312.624 260.42C313.045 260.545 313.27 260.859 313.377 261.208L319.118 279.847L315.623 280.923L310.6 264.615C310.394 263.53 309.488 262.661 308.341 262.249ZM298.898 241.945C298.682 237.93 301.809 234.416 305.823 234.2C308.449 234.029 311.039 235.399 312.528 237.747L315.424 242.594C314.985 243.24 314.546 243.885 313.955 244.45L311.625 246.825C309.887 248.636 307.325 249.426 304.985 248.871L301.49 248.289C300.684 248.155 299.958 247.868 299.232 247.582L298.898 241.945ZM314.445 236.519C314.185 236.089 313.925 235.658 313.585 235.381L316.434 233.865C317.044 235.846 317.036 237.889 316.409 239.995L314.445 236.519ZM315.797 231.383L311.738 233.526C307.337 230.418 301.297 231.513 298.189 235.914C297.75 236.559 297.347 237.321 297.06 238.047L292.499 238.559L290.095 230.755C289.915 230.172 290.157 229.715 290.551 229.338L300.138 223.197L300.488 223.089C300.488 223.089 300.721 223.017 300.837 222.982L312.219 222.665C312.72 222.638 313.213 222.996 313.393 223.578L315.797 231.383ZM296.425 240.539C296.335 241.077 296.326 241.462 296.353 241.964L296.686 245.943C295.135 244.635 293.943 242.834 293.216 240.889L296.425 240.539ZM300.935 250.628L304.197 251.282C307.46 251.935 310.838 250.894 313.167 248.519L315.497 246.143C315.774 245.803 316.052 245.462 316.33 245.121L320.488 245.371L309.737 256.845L296.804 252.538L299.672 250.252C300.093 250.378 300.514 250.503 300.935 250.628V250.628ZM286.26 234.869L283.713 226.598C283.031 224.385 283.702 222.01 285.36 220.351L286.74 219.034C287.447 218.433 288.191 217.949 289.123 217.662L306.83 212.208C307.761 211.921 308.649 211.903 309.572 212.001L311.454 212.314C313.757 212.752 315.648 214.338 316.33 216.551L318.878 224.822C319.093 225.521 319.075 226.292 318.905 226.982L317.947 230.083L315.723 222.861C315.22 221.23 313.777 220.271 312.119 220.272L300.738 220.589C300.12 220.652 299.421 220.867 298.874 221.163L289.287 227.305C287.916 228.237 287.298 229.958 287.765 231.472L289.989 238.695L287.453 236.67C286.924 236.195 286.476 235.568 286.26 234.869V234.869ZM286.665 269.309C285.481 265.464 286.501 261.324 289.305 258.419L307.634 264.508C308.055 264.633 308.279 264.947 308.387 265.296L313.41 281.605L292.442 288.064L286.665 269.309ZM342.063 259.515L342.721 271.174C342.775 272.178 342.022 273.047 341.018 273.101C340.284 273.2 339.638 272.761 339.306 272.098L338.419 270.458C337.531 268.819 335.425 268.192 333.785 269.08C332.576 269.707 331.85 271.079 332.012 272.432L332.236 274.403C332.219 275.174 331.699 275.972 330.884 276.223C330.068 276.474 329.19 276.107 328.742 275.48L322.725 265.471C321.721 263.867 322.283 261.626 323.887 260.621C324.389 260.31 325.161 260.129 325.161 260.129C326.443 259.735 327.742 260.227 328.487 261.401C329.527 263.121 331.666 263.467 333.317 262.591C334.529 262.091 335.038 260.869 335.01 259.392C334.965 258.003 335.762 256.864 337.043 256.47L337.509 256.326C339.373 255.752 341.354 256.8 341.928 258.664C342 258.897 342.044 259.215 342.063 259.515V259.515Z" fill="#009E55"/>
</g>
<g clip-path="url(#clip10)">
<path d="M438.565 254.998L431.138 254.314L431.076 254.257L431.033 254.304L426.656 253.902C427.787 252.507 428.626 250.899 429.122 249.173C429.617 247.447 429.76 245.638 429.541 243.856L430.326 242.371C431.154 240.817 431.665 239.113 431.831 237.359C431.996 235.606 431.811 233.837 431.288 232.155L425.682 213.954L419.947 220.342C419.8 220.507 419.61 220.628 419.398 220.693L395.581 228.029C393.42 228.698 391.612 230.196 390.554 232.196C389.496 234.195 389.275 236.533 389.938 238.695L391.681 244.354C392.195 246.039 393.038 247.605 394.161 248.962C395.285 250.319 396.666 251.439 398.225 252.259L399.71 253.044C400.532 254.641 401.667 256.056 403.048 257.204C404.429 258.352 406.027 259.21 407.747 259.726L398.519 267.333C396.464 269.019 394.959 271.28 394.196 273.826C393.432 276.372 393.446 279.087 394.234 281.626L399.725 299.453L455.64 282.23L450.149 264.403C449.372 261.861 447.855 259.608 445.792 257.933C443.728 256.258 441.212 255.236 438.565 254.998ZM420.207 262.429L419.354 259.663C421.349 258.872 423.162 257.683 424.682 256.168L428.956 256.562L428.665 256.877C426.349 259.399 423.442 261.307 420.207 262.429V262.429ZM415.222 279.374C415.683 279.232 416.176 279.23 416.638 279.368C417.1 279.506 417.51 279.778 417.818 280.149C418.125 280.52 418.316 280.975 418.365 281.454C418.414 281.934 418.32 282.417 418.095 282.844C417.869 283.27 417.523 283.62 417.098 283.849C416.674 284.078 416.191 284.176 415.711 284.131C415.231 284.086 414.775 283.899 414.401 283.595C414.027 283.29 413.752 282.882 413.61 282.421C413.42 281.803 413.484 281.135 413.786 280.564C414.088 279.993 414.605 279.565 415.222 279.374V279.374ZM407.932 262.827L407.847 262.803L410.654 260.489C412.763 260.886 414.93 260.849 417.025 260.381L417.861 263.096C414.578 263.813 411.171 263.72 407.932 262.827ZM422.329 237.647C421.786 237.053 421.085 236.625 420.309 236.413C419.533 236.2 418.713 236.212 417.943 236.447L415.265 237.271C414.653 237.458 414.091 237.781 413.622 238.216C413.152 238.651 412.787 239.186 412.553 239.782L412.217 240.633L411.462 240.119C410.933 239.757 410.33 239.52 409.697 239.425C409.064 239.33 408.418 239.379 407.806 239.569L405.129 240.394C404.36 240.633 403.676 241.085 403.153 241.697C402.631 242.309 402.293 243.057 402.178 243.853L399.439 244.697L398.363 241.202C398.268 240.893 398.3 240.559 398.451 240.274C398.602 239.988 398.86 239.774 399.169 239.678L422.467 232.502C422.776 232.407 423.11 232.439 423.396 232.59C423.681 232.741 423.895 233 423.991 233.308L425.067 236.803L422.329 237.647ZM420.946 239.986C421.088 240.449 421.041 240.95 420.814 241.378C420.587 241.807 420.2 242.128 419.737 242.271L417.06 243.096C416.798 243.177 416.52 243.198 416.249 243.158C415.978 243.117 415.719 243.015 415.493 242.86L414.284 242.038L414.821 240.677C414.921 240.422 415.077 240.192 415.279 240.006C415.48 239.819 415.721 239.681 415.983 239.601L418.66 238.776C419.124 238.634 419.625 238.682 420.053 238.908C420.482 239.135 420.803 239.522 420.946 239.986V239.986ZM411.3 242.957L410.762 244.317C410.662 244.573 410.506 244.802 410.305 244.989C410.103 245.175 409.863 245.313 409.6 245.393L406.923 246.218C406.459 246.361 405.958 246.314 405.53 246.087C405.101 245.86 404.78 245.472 404.637 245.009C404.495 244.546 404.542 244.044 404.769 243.616C404.995 243.187 405.383 242.866 405.846 242.723L408.524 241.899C408.786 241.817 409.063 241.796 409.334 241.837C409.606 241.878 409.864 241.98 410.091 242.135L411.3 242.957ZM394.011 243.637L392.268 237.978C391.794 236.433 391.953 234.763 392.708 233.335C393.464 231.907 394.755 230.837 396.299 230.359L420.116 223.023C420.75 222.828 421.318 222.464 421.761 221.971L424.62 218.787L428.958 232.872C429.703 235.269 429.597 237.85 428.658 240.177L426.321 232.591C426.034 231.664 425.392 230.89 424.535 230.436C423.678 229.983 422.677 229.888 421.75 230.172L398.451 237.349C397.525 237.635 396.75 238.277 396.297 239.134C395.844 239.991 395.749 240.993 396.033 241.92L398.37 249.506C396.284 248.111 394.744 246.037 394.011 243.637V243.637ZM401.107 250.111L400.157 247.027L402.546 246.291C402.982 247.216 403.737 247.953 404.673 248.368C405.608 248.782 406.662 248.846 407.641 248.548L410.318 247.723C410.93 247.536 411.492 247.214 411.962 246.779C412.431 246.344 412.797 245.809 413.03 245.213L413.366 244.362L414.122 244.876C414.65 245.237 415.253 245.474 415.886 245.57C416.519 245.665 417.166 245.616 417.777 245.426L420.455 244.601C421.431 244.297 422.266 243.651 422.806 242.782C423.347 241.914 423.556 240.879 423.396 239.869L425.785 239.133L426.735 242.217C427.269 243.943 427.367 245.774 427.021 247.547C426.676 249.32 425.897 250.98 424.754 252.379L423.929 253.391C422.259 255.446 420.017 256.959 417.486 257.738C414.956 258.518 412.25 258.529 409.714 257.769L408.463 257.397C406.731 256.884 405.153 255.95 403.87 254.679C402.586 253.407 401.637 251.838 401.107 250.111L401.107 250.111ZM396.563 280.908C395.919 278.831 395.908 276.609 396.533 274.526C397.157 272.443 398.389 270.594 400.07 269.214L405.546 264.7L407.287 265.178C408.093 265.394 408.91 265.567 409.734 265.696L413.391 277.568C412.38 278.19 411.631 279.159 411.283 280.294C410.936 281.428 411.014 282.651 411.504 283.732C411.993 284.813 412.86 285.679 413.942 286.166C415.024 286.654 416.246 286.73 417.381 286.381C418.515 286.031 419.482 285.28 420.102 284.269C420.723 283.257 420.952 282.054 420.749 280.884C420.545 279.715 419.922 278.661 418.996 277.918C418.071 277.175 416.906 276.796 415.721 276.851L412.373 265.982C414.457 266.081 416.546 265.897 418.581 265.433L425.8 288.87L411.821 293.176L410.027 287.351L407.697 288.069L409.491 293.893L401.337 296.405L396.563 280.908ZM452.593 280.617L444.438 283.129L442.644 277.304L440.315 278.022L442.109 283.847L428.13 288.152L420.923 264.757C422.881 264.086 424.739 263.153 426.447 261.986L427.706 266.073L425.996 269.304C425.77 269.729 425.631 270.193 425.585 270.672C425.54 271.15 425.591 271.632 425.733 272.091L427.948 279.28C428.234 280.207 428.876 280.981 429.733 281.435C430.59 281.888 431.592 281.983 432.519 281.699L431.801 279.369C431.492 279.464 431.158 279.432 430.873 279.281C430.587 279.13 430.373 278.871 430.278 278.563L428.063 271.374C428.016 271.221 427.999 271.06 428.014 270.9C428.029 270.741 428.075 270.586 428.151 270.444L429.527 267.843L432.128 269.219C432.27 269.294 432.395 269.396 432.497 269.519C432.599 269.643 432.676 269.785 432.723 269.938L434.937 277.128C435.032 277.436 435 277.77 434.849 278.056C434.698 278.342 434.44 278.556 434.131 278.651L434.849 280.981C435.775 280.695 436.55 280.053 437.003 279.196C437.457 278.339 437.551 277.337 437.267 276.41L435.053 269.221C434.913 268.761 434.683 268.334 434.376 267.964C434.07 267.594 433.693 267.288 433.268 267.065L430.036 265.355L428.51 260.402C429.195 259.815 429.846 259.189 430.459 258.528L432.01 256.843L438.341 257.426C440.507 257.62 442.566 258.456 444.254 259.827C445.943 261.198 447.184 263.041 447.819 265.12L452.593 280.617Z" fill="#009E55"/>
</g>
<defs>
<clipPath id="clip0">
<rect width="78.0107" height="78.0107" fill="white" transform="translate(195.339 331.09) rotate(-17.1198)"/>
</clipPath>
<clipPath id="clip1">
<rect width="78.0107" height="78.0107" fill="white" transform="translate(304.234 339.431) rotate(-17.1198)"/>
</clipPath>
<clipPath id="clip2">
<rect width="78.0107" height="78.0107" fill="white" transform="translate(413.131 347.773) rotate(-17.1198)"/>
</clipPath>
<clipPath id="clip3">
<rect width="78.0107" height="78.0107" fill="white" transform="translate(132.314 449.098) rotate(-17.1198)"/>
</clipPath>
<clipPath id="clip4">
<rect width="78.0107" height="78.0107" fill="white" transform="translate(241.21 457.439) rotate(-17.1198)"/>
</clipPath>
<clipPath id="clip5">
<rect width="78.0107" height="78.0107" fill="white" transform="translate(350.106 465.781) rotate(-17.1198)"/>
</clipPath>
<clipPath id="clip6">
<rect width="78.0107" height="78.0107" fill="white" transform="translate(373.128 52.8761) rotate(-17.1198)"/>
</clipPath>
<clipPath id="clip7">
<rect width="78.0107" height="78.0107" fill="white" transform="translate(321.1 129.477) rotate(-17.1198)"/>
</clipPath>
<clipPath id="clip8">
<rect width="78.0107" height="78.0107" fill="white" transform="translate(429.995 137.818) rotate(-17.1198)"/>
</clipPath>
<clipPath id="clip9">
<rect width="78.0107" height="78.0107" fill="white" transform="translate(259.264 221.757) rotate(-17.1198)"/>
</clipPath>
<clipPath id="clip10">
<rect width="78.0107" height="78.0107" fill="white" transform="translate(368.159 230.099) rotate(-17.1198)"/>
</clipPath>
</defs>
</svg>
