<svg width="515" height="606" viewBox="0 0 515 606" fill="none" xmlns="http://www.w3.org/2000/svg">
<g clip-path="url(#clip0)">
<path d="M240.401 612.137C240.847 611.826 241.152 611.35 241.247 610.815L242.527 603.63C242.992 601.019 241.739 598.413 239.409 597.146L231.91 593.068L232.37 590.485C233.485 590.684 234.551 589.941 234.749 588.826L236.188 580.75C236.387 579.635 235.644 578.57 234.529 578.372L222.415 576.213C221.3 576.015 220.235 576.758 220.036 577.873L218.597 585.949C218.399 587.064 219.142 588.129 220.257 588.327L219.796 590.91L211.351 592.147C208.726 592.532 206.65 594.544 206.185 597.156L204.905 604.34C204.81 604.875 204.931 605.427 205.242 605.873L208.075 609.934L205.447 624.682L201.387 627.515C200.941 627.826 200.636 628.302 200.541 628.837L199.102 636.913C198.507 640.253 200.74 643.454 204.08 644.049L228.308 648.366C231.648 648.961 234.849 646.727 235.444 643.388L236.883 635.312C236.978 634.776 236.857 634.225 236.546 633.779L233.713 629.718L236.341 614.97L240.401 612.137ZM223.714 580.611L231.79 582.05L231.071 586.088L222.995 584.649L223.714 580.611ZM231.406 642.668C231.208 643.782 230.141 644.526 229.027 644.328L204.799 640.011C203.686 639.813 202.942 638.746 203.14 637.632L204.43 630.393L207.794 628.046L230.349 632.065L232.696 635.429L231.406 642.668ZM209.696 624.219L211.902 611.836L232.092 615.433L229.886 627.816L209.696 624.219ZM233.994 611.605L211.439 607.587L209.092 604.223L210.223 597.875C210.378 597.004 211.07 596.334 211.945 596.206L221.853 594.754C222.727 594.626 223.42 593.954 223.575 593.085L224.295 589.047L228.332 589.766L227.613 593.804C227.458 594.673 227.877 595.544 228.652 595.965L237.45 600.749C238.227 601.172 238.644 602.04 238.489 602.911L237.358 609.259L233.994 611.605Z" fill="#8200BE"/>
</g>
<g clip-path="url(#clip1)">
<path d="M347.751 561.674L349.316 552.89C349.514 551.776 348.772 550.712 347.658 550.514L345.642 550.155L346.408 545.852L356.492 547.649C357.606 547.847 358.67 547.105 358.868 545.991L359.299 543.571C359.41 542.949 359.228 542.31 358.804 541.84C355.757 538.459 351.563 535.639 346.996 533.902C342.66 532.253 338.511 531.782 335.613 532.61C333.24 533.289 331.727 534.822 331.352 536.928C330.884 539.557 332.17 542.099 334.369 543.35L333.541 547.999L331.524 547.64C330.41 547.441 329.347 548.183 329.148 549.297L327.583 558.081C320.108 560.885 315.294 567.714 313.87 575.706C312.76 581.938 313.829 584.85 316.502 597.756C316.672 598.576 317.324 599.211 318.149 599.357L342.35 603.669C343.175 603.816 344.006 603.446 344.448 602.735C351.009 592.196 353.403 589.298 354.534 582.951C355.961 574.938 353.786 566.876 347.751 561.674V561.674ZM336.74 536.55C337.877 536.224 339.5 536.225 341.375 536.559C345.297 537.258 350.319 539.415 354.292 543.095L337.043 540.022C335.931 539.824 335.187 538.758 335.385 537.646C335.422 537.442 335.518 536.899 336.74 536.55V536.55ZM338.341 544.415L342.375 545.134L341.608 549.436L337.575 548.717L338.341 544.415ZM332.822 552.032L344.923 554.188L344.039 559.149C340.402 557.24 336.109 556.445 331.939 556.993L332.822 552.032ZM341.705 599.393L320.231 595.567C317.832 584.114 316.987 581.571 317.903 576.425C319.726 566.196 327.761 559.454 337.435 561.177C347.299 562.935 352.284 572.22 350.5 582.232C349.573 587.436 347.796 589.666 341.705 599.393Z" fill="#8200BE"/>
<path d="M335.998 569.245C330.438 568.254 325.108 571.972 324.118 577.532C323.127 583.092 326.845 588.422 332.405 589.412C337.965 590.403 343.295 586.685 344.285 581.125C345.276 575.565 341.558 570.235 335.998 569.245ZM333.124 585.379C329.787 584.785 327.557 581.587 328.151 578.251C328.745 574.914 331.943 572.684 335.279 573.278C338.616 573.873 340.846 577.07 340.252 580.406C339.657 583.743 336.46 585.973 333.124 585.379Z" fill="#8200BE"/>
</g>
<g clip-path="url(#clip2)">
<path d="M466.82 535.327C466.505 530.782 462.034 527.465 462.535 524.655C463.148 521.214 466.222 519.289 466.383 514.63C466.503 511.138 464.686 508.445 463.573 507.133L464.832 500.067C465.031 498.952 464.288 497.887 463.173 497.688L461.154 497.329L461.921 493.021L463.94 493.381C465.055 493.58 466.12 492.837 466.319 491.722C466.517 490.607 465.775 489.542 464.659 489.343L452.546 487.185C451.431 486.986 450.366 487.729 450.167 488.844L449.04 495.17L447.021 494.811C445.906 494.612 444.841 495.355 444.642 496.47L443.383 503.536C441.885 504.383 439.251 506.283 438.157 509.602C436.695 514.042 438.919 516.901 438.307 520.338C437.805 523.152 432.467 524.712 430.599 528.874C428.881 532.704 430.143 548.732 430.509 552.824C430.591 553.746 431.281 554.499 432.192 554.661L456.42 558.977C457.331 559.14 458.238 558.672 458.633 557.835C460.405 554.09 467.11 539.51 466.82 535.327V535.327ZM457.134 496.504L453.096 495.785L453.845 491.583L457.883 492.302L457.134 496.504ZM448.32 499.208L460.434 501.367L459.715 505.404L447.601 503.246L448.32 499.208ZM455.585 554.662L434.466 550.9C434.242 548.059 433.172 533.16 434.341 530.553C435.676 527.578 441.47 525.97 442.345 521.058C443.123 516.691 441.029 513.994 442.053 510.885C442.755 508.753 444.638 507.518 445.516 507.041L460.36 509.685C461.025 510.442 462.361 512.25 462.284 514.489C462.17 517.793 459.283 519.521 458.497 523.935C457.622 528.847 462.503 532.359 462.728 535.611C462.926 538.461 456.775 552.074 455.585 554.662V554.662Z" fill="#8200BE"/>
<path d="M456.801 534.024L440.452 531.111C439.89 531.011 439.312 531.15 438.856 531.493C438.401 531.837 438.11 532.355 438.052 532.922C437.822 535.178 437.886 540.114 438.219 545.804C438.274 546.751 438.972 547.537 439.906 547.703L451.583 549.783C452.517 549.95 453.443 549.454 453.822 548.584C456.099 543.359 457.864 538.749 458.428 536.553C458.569 536 458.474 535.413 458.166 534.933C457.857 534.454 457.362 534.124 456.801 534.024ZM450.702 545.46L442.225 543.95C442.058 540.649 441.989 537.673 442.025 535.558L453.788 537.653C453.092 539.651 451.999 542.42 450.702 545.46Z" fill="#8200BE"/>
</g>
<g clip-path="url(#clip3)">
<path d="M10.3675 445.075C9.64248 445.278 9.08672 445.862 8.91995 446.596C7.8246 451.418 8.00156 455.609 8.34312 458.275C8.45705 459.164 9.13508 459.876 10.0175 460.033L18.7815 461.595C19.7018 461.758 20.6166 461.279 21.0057 460.429C22.9646 456.152 24.5069 452.15 25.1315 449.724C25.3424 448.905 25.0288 448.041 24.3418 447.547C22.3436 446.112 20.0936 445.164 17.6549 444.729C15.2025 444.292 12.7507 444.409 10.3675 445.075V445.075ZM17.9272 457.276L12.2621 456.267C12.1146 454.268 12.1333 451.671 12.6642 448.754C14.0704 448.508 15.5022 448.512 16.9354 448.767C18.2895 449.008 19.5648 449.46 20.743 450.114C20.1292 452.009 19.1273 454.56 17.9272 457.276Z" fill="#8200BE"/>
<path d="M44.0076 413.734L45.4464 405.658C45.6451 404.543 44.9022 403.478 43.7871 403.28L21.5782 399.323C17.1252 398.53 12.8568 401.507 12.0635 405.96C11.3943 409.716 13.4079 413.341 16.7272 414.86L16.3677 416.878C14.3005 419.429 4.03017 432.501 1.17483 443.725C-1.98412 456.141 1.53903 465.488 1.69059 465.879C1.94922 466.548 2.53801 467.033 3.24358 467.159L23.4335 470.756C24.3151 470.913 25.1968 470.48 25.6112 469.686C27.9572 465.188 34.3332 452.067 33.6124 446.677C32.7606 440.305 26.4615 439.313 25.4945 434.913C24.6348 431.003 27.1965 422.832 28.2741 419.962C28.3016 419.893 28.3255 419.821 28.3458 419.748C28.3667 419.673 28.3832 419.597 28.3952 419.521L28.9628 416.335L31.674 415.151C31.8675 418.688 33.3609 423.229 38.6058 427.133C38.8698 427.33 39.1657 427.454 39.4691 427.508C40.2096 427.64 40.9956 427.358 41.4754 426.713C42.1518 425.805 41.9636 424.52 41.0551 423.843C36.8763 420.733 35.7525 417.221 35.7496 414.346L41.6289 415.394C42.744 415.592 43.809 414.849 44.0076 413.734V413.734ZM29.547 447.221C30.065 451.095 24.4047 462.942 22.6536 466.451L5.18123 463.338C4.44095 460.719 2.90849 453.545 5.14958 444.736C7.60813 435.073 16.495 423.329 19.1295 419.995L23.6408 420.799C22.4476 424.454 20.5242 431.408 21.4883 435.794C22.8377 441.932 28.9683 442.893 29.547 447.221V447.221ZM26.3156 413.015C25.6872 413.29 25.2374 413.86 25.1172 414.535L24.7095 416.823L20.6716 416.104L21.0792 413.815C21.2779 412.7 20.5349 411.635 19.4199 411.437C17.1934 411.04 15.7047 408.906 16.1013 406.679C16.498 404.453 18.6322 402.964 20.8587 403.361L32.9726 405.519L32.0861 410.495L26.3156 413.015ZM40.3293 410.996L36.2914 410.276L37.0108 406.238L41.0487 406.958L40.3293 410.996Z" fill="#8200BE"/>
</g>
<g clip-path="url(#clip4)">
<path d="M34.0074 545.851L31.5844 545.419C31.363 535.758 24.372 527.469 14.6761 525.742C4.98026 524.015 -4.44299 529.379 -7.98743 538.369L-10.4104 537.937C-11.5254 537.739 -12.5904 538.482 -12.789 539.597L-14.2278 547.673C-14.4265 548.788 -13.6836 549.853 -12.5685 550.051L-10.359 550.445C-10.4645 551.808 -13.3139 588.599 -13.4195 589.962C-13.5009 591.013 -12.7723 591.954 -11.7345 592.139L16.5314 597.175C17.5691 597.36 18.578 596.728 18.8647 595.713C21.1694 587.555 24.3629 576.25 29.6397 557.571L31.8492 557.965C32.9643 558.163 34.0293 557.42 34.2279 556.305L35.6667 548.229C35.8654 547.114 35.1224 546.049 34.0074 545.851ZM13.9567 529.78C21.4324 531.112 26.8987 537.317 27.4441 544.681L-3.84702 539.107C-0.791911 532.384 6.48121 528.448 13.9567 529.78ZM19.9045 576.945L13.6118 575.824C12.6752 575.657 11.7468 576.156 11.3694 577.03C9.78105 580.708 6.97941 582.975 4.55662 582.543C2.13383 582.111 0.287631 579.016 0.0669185 575.016C0.0145135 574.066 -0.684349 573.277 -1.62103 573.11L-7.91368 571.989L-7.59539 567.88L-0.90163 569.072C0.0350472 569.239 0.963468 568.74 1.34073 567.866C2.9293 564.188 5.73081 561.921 8.1536 562.353C10.5764 562.785 12.4227 565.88 12.6432 569.88C12.6957 570.83 13.3946 571.619 14.3312 571.786L21.025 572.978L19.9045 576.945ZM-9.1867 588.427L-8.23183 576.098L-3.86395 576.877C-3.09906 582.059 -0.129687 585.874 3.83722 586.581C7.80414 587.288 11.9084 584.733 14.416 580.133L18.7839 580.911L15.4222 592.811L-9.1867 588.427ZM22.1455 569.012L16.5742 568.019C15.8094 562.837 12.8399 559.022 8.873 558.315C4.90608 557.608 0.801854 560.163 -1.70576 564.763L-7.2771 563.77L-6.30106 551.168L25.5819 556.848L22.1455 569.012ZM30.5496 553.567L-9.83015 546.373L-9.11076 542.335L29.1331 549.148C29.1343 549.149 29.1354 549.149 29.1366 549.149C29.1375 549.149 29.1386 549.149 29.1395 549.15L31.269 549.529L30.5496 553.567Z" fill="#8200BE"/>
</g>
<g clip-path="url(#clip5)">
<path d="M132.543 529.92C133.727 523.273 138.905 522.317 139.116 516.203C139.236 512.711 137.419 510.017 136.306 508.704L137.562 501.65C137.761 500.535 137.018 499.47 135.903 499.271L135.693 499.234C135.62 496.765 134.642 494.372 132.936 492.535L133.711 488.186C134.306 484.845 132.072 481.643 128.732 481.048C125.392 480.453 122.19 482.686 121.595 486.027L120.82 490.377C118.584 491.511 116.84 493.42 115.919 495.711L115.709 495.673C114.594 495.475 113.529 496.218 113.33 497.333L112.073 504.387C110.575 505.235 107.94 507.135 106.846 510.454C104.927 516.282 109.466 518.93 108.278 525.597C107.096 532.226 101.918 533.177 101.708 539.296C101.539 544.201 105.193 547.533 105.349 547.672C105.619 547.914 105.968 548.094 106.364 548.165L126.545 551.76C126.548 551.761 126.55 551.762 126.553 551.762C126.916 551.827 127.311 551.79 127.668 551.648C127.862 551.571 132.442 549.707 133.977 545.045C135.888 539.245 131.363 536.545 132.543 529.92V529.92ZM117.009 500.072L133.164 502.95L132.447 506.976L116.292 504.098L117.009 500.072ZM123.352 493.741C124.038 493.49 124.538 492.894 124.666 492.175L125.633 486.746C125.832 485.633 126.899 484.888 128.012 485.087C129.126 485.285 129.87 486.352 129.672 487.466L128.705 492.894C128.577 493.613 128.841 494.346 129.398 494.818C130.546 495.793 131.279 497.088 131.516 498.49L120.096 496.455C120.803 495.221 121.937 494.259 123.352 493.741V493.741ZM130.081 543.762C129.38 545.891 127.501 547.126 126.616 547.606L107.729 544.241C107.069 543.492 105.73 541.685 105.808 539.437C105.948 535.377 110.949 533.988 112.316 526.316C113.677 518.679 109.484 515.559 110.743 511.737C111.445 509.606 113.328 508.37 114.206 507.893L133.092 511.258C133.757 512.014 135.093 513.822 135.016 516.062C134.876 520.122 129.872 521.519 128.504 529.2C127.146 536.828 131.339 539.941 130.081 543.762V543.762Z" fill="#8200BE"/>
<path d="M124.95 513.974L120.911 513.254C119.796 513.056 118.731 513.799 118.532 514.914C118.333 516.029 119.076 517.094 120.191 517.293L124.23 518.013C125.345 518.211 126.411 517.468 126.609 516.353C126.808 515.238 126.065 514.173 124.95 513.974Z" fill="#8200BE"/>
<path d="M123.51 522.051L119.472 521.332C118.356 521.133 117.291 521.876 117.092 522.991C116.894 524.107 117.637 525.172 118.752 525.371L122.791 526.09C123.906 526.289 124.971 525.546 125.17 524.43C125.369 523.315 124.625 522.25 123.51 522.051Z" fill="#8200BE"/>
<path d="M122.071 530.129L118.033 529.409C116.917 529.211 115.852 529.954 115.653 531.069C115.455 532.184 116.198 533.249 117.313 533.448L121.352 534.168C122.467 534.366 123.532 533.623 123.731 532.508C123.93 531.393 123.187 530.328 122.071 530.129Z" fill="#8200BE"/>
<path d="M120.632 538.206L116.594 537.487C115.478 537.288 114.413 538.031 114.214 539.146C114.016 540.262 114.759 541.327 115.874 541.526L119.913 542.245C121.028 542.444 122.093 541.701 122.292 540.586C122.491 539.47 121.748 538.405 120.632 538.206Z" fill="#8200BE"/>
</g>
<g clip-path="url(#clip6)">
<path d="M247.666 502.477C249.375 488.062 248.159 468.935 247.946 465.861L249.675 456.155C249.923 454.761 249.221 453.47 248.106 453.272L245.784 452.858L246.422 439.186C246.48 437.937 245.796 436.89 244.806 436.714L240.768 435.994C239.779 435.818 238.775 436.564 238.398 437.757L234.275 450.808L231.954 450.394C230.839 450.196 229.733 451.164 229.485 452.558L227.756 462.264C226.494 465.076 218.747 482.605 215.373 496.724C213.793 503.335 213.401 509.154 214.207 514.019C214.841 517.845 216.028 519.693 216.162 519.891C216.457 520.33 216.875 520.616 217.345 520.699L237.535 524.296C238.005 524.38 238.497 524.256 238.926 523.946C239.119 523.807 240.871 522.483 242.788 519.11C245.224 514.823 246.866 509.227 247.666 502.477ZM223.092 485.269L244.378 489.062C244.311 492.53 244.153 496.059 243.856 499.384L220.017 495.137C220.886 491.915 221.957 488.548 223.092 485.269V485.269ZM230.748 465.802L243.916 468.148C244.089 471.04 244.392 477.039 244.417 483.861L224.852 480.375C227.231 473.982 229.587 468.457 230.748 465.802ZM241.586 441.348L242.191 441.455L241.693 452.129L238.367 451.537L241.586 441.348ZM233.073 455.801L245.187 457.96L244.288 463.007L232.174 460.849L233.073 455.801ZM237.553 519.092L219.125 515.809C218.438 514.124 217.039 509.23 218.829 500.133L243.245 504.483C241.783 513.639 238.78 517.748 237.553 519.092Z" fill="#8200BE"/>
</g>
<g clip-path="url(#clip7)">
<path d="M359.336 436.126C359.991 432.45 363.748 426.586 363.904 422.064C363.961 420.402 363.465 418.332 362.388 415.733C360.747 411.778 360.286 407.411 361.053 403.103L362.54 394.758C362.739 393.643 361.996 392.578 360.881 392.379L352.805 390.94C351.69 390.742 350.625 391.485 350.426 392.6L348.939 400.945C348.172 405.252 346.231 409.192 343.325 412.337C341.417 414.404 340.236 416.176 339.716 417.755C338.295 422.071 339.806 428.828 339.146 432.529C338.52 436.043 333.018 443.544 331.871 449.981C331.165 453.944 332.349 456.203 333.466 457.399C334.742 458.767 336.208 459.086 336.489 459.136L352.641 462.013C352.922 462.064 354.408 462.271 356.078 461.428C357.54 460.691 359.431 458.98 360.137 455.017C361.291 448.538 358.705 439.671 359.336 436.126ZM343.329 427.025L357.311 429.516C355.006 434.976 354.814 436.146 355.459 441.685L340.866 439.085C343.383 434.11 343.607 432.943 343.329 427.025V427.025ZM354.105 395.338L358.142 396.058L357.375 400.365L353.337 399.645L354.105 395.338ZM346.339 415.12C349.319 411.893 351.44 407.967 352.542 403.67L356.732 404.416C356.282 408.83 356.916 413.247 358.599 417.304C360.171 421.096 360.109 422.324 358.895 425.632L343.185 422.833C343.188 419.31 343.553 418.136 346.339 415.12V415.12ZM337.209 455.098C337.209 455.098 337.214 455.099 337.224 455.1C337.229 455.101 337.235 455.103 337.243 455.104L337.209 455.098ZM353.326 457.969C353.349 457.973 353.361 457.976 353.361 457.976L353.326 457.969ZM353.319 457.968L337.251 455.105C336.875 455.007 335.257 454.362 335.909 450.7C336.335 448.308 337.589 445.542 338.913 442.903L355.973 445.942C356.304 448.876 356.525 451.905 356.099 454.297C355.447 457.959 353.705 458.005 353.319 457.968V457.968Z" fill="#8200BE"/>
</g>
<g clip-path="url(#clip8)">
<path d="M150.277 374.173L151.515 367.223C151.714 366.108 150.971 365.043 149.856 364.844L150.983 358.518C151.182 357.403 150.439 356.338 149.324 356.139L137.21 353.981C136.095 353.783 135.03 354.525 134.831 355.64L133.704 361.967C132.589 361.768 131.524 362.511 131.326 363.626L130.087 370.576C126.272 372.178 114.166 378.097 112.157 389.374C109.204 405.947 115.085 419.682 115.337 420.259C115.611 420.887 116.181 421.337 116.856 421.457L145.122 426.493C145.887 426.629 146.663 426.322 147.127 425.699C147.586 425.082 158.395 410.454 160.613 398.007C162.622 386.73 153.305 376.994 150.277 374.173ZM135.004 366.364L147.118 368.523L146.398 372.56L134.284 370.402L135.004 366.364ZM138.51 358.379L146.586 359.818L145.818 364.125L137.742 362.686L138.51 358.379ZM144.568 422.228L118.708 417.621C117.48 414.278 113.901 402.971 116.195 390.093C117.914 380.444 129.583 375.21 132.113 374.182L147.133 376.858C149.157 378.694 158.299 387.606 156.575 397.287C154.845 406.998 147.013 418.741 144.568 422.228Z" fill="#8200BE"/>
<path d="M147.105 405.967C146.868 405.844 146.617 405.775 146.367 405.75C145.935 405.708 145.507 405.647 145.083 405.572C140.306 404.721 136.078 401.804 133.602 397.589C130.906 393 130.564 387.347 132.687 382.467L132.685 382.466C132.934 381.891 132.92 381.21 132.583 380.625C132.018 379.644 130.764 379.306 129.783 379.872C125.919 382.097 121.125 385.801 120.233 390.813C118.667 399.601 120.035 407.598 121.459 412.759C121.669 413.521 122.298 414.094 123.076 414.233L141.354 417.489C142.169 417.634 142.991 417.275 143.439 416.579C144.605 414.763 146.342 411.927 147.989 408.729C148.508 407.722 148.112 406.486 147.105 405.967V405.967ZM140.716 413.21L125.089 410.425C124.062 406.256 122.911 399.165 124.271 391.532C124.55 389.963 125.626 388.29 127.351 386.669C126.825 391.132 127.744 395.716 130.066 399.667C132.915 404.515 137.624 407.983 143.015 409.32C142.195 410.787 141.399 412.114 140.716 413.21Z" fill="#8200BE"/>
<path d="M152.578 396.319C152.964 393.757 152.288 391.174 151.186 388.84C149.574 384.909 147.385 382.998 146.478 381.996C146.38 381.888 146.272 381.793 146.158 381.71C143.66 379.582 139.891 379.783 137.648 382.208C135.343 384.697 135.494 388.598 137.985 390.904C139.386 392.2 140.222 393.963 140.34 395.868C140.514 398.711 142.594 401.046 145.397 401.545C148.891 402.168 152.12 399.731 152.578 396.319ZM146.116 397.507C145.184 397.341 144.492 396.563 144.434 395.616C144.251 392.652 142.95 389.909 140.77 387.893C139.94 387.125 139.89 385.824 140.658 384.994C141.42 384.171 142.719 384.114 143.553 384.879C144.447 385.883 146.297 388.119 147.488 390.639C148.072 392.133 148.425 393.723 148.526 395.363C148.608 396.683 147.433 397.742 146.116 397.507V397.507Z" fill="#8200BE"/>
</g>
<g clip-path="url(#clip9)">
<path d="M277.325 326.706L274.753 326.247L273.127 314.619C273.004 313.74 272.329 313.04 271.456 312.884L243.19 307.848C242.316 307.692 241.441 308.117 241.022 308.899L235.48 319.251L232.908 318.792C231.793 318.594 230.728 319.337 230.529 320.452L229.09 328.528C228.891 329.643 229.634 330.708 230.749 330.906L232.944 331.297L232.238 339.513C231.731 339.47 231.223 339.616 230.815 339.928C230.358 340.279 230.07 340.806 230.02 341.38L228.258 361.897C228.168 362.954 228.898 363.906 229.942 364.092L230.125 364.124L229.228 374.568C229.138 375.625 229.868 376.577 230.912 376.763L259.178 381.799C260.222 381.985 261.236 381.344 261.516 380.321L264.281 370.21L264.464 370.242C265.508 370.428 266.522 369.787 266.802 368.764L272.234 348.901C272.386 348.345 272.297 347.751 271.989 347.264C271.715 346.83 271.288 346.518 270.797 346.383L272.973 338.429L275.167 338.82C276.282 339.018 277.347 338.275 277.546 337.16L278.985 329.084C279.183 327.969 278.44 326.904 277.325 326.706ZM243.936 312.147L269.271 316.661L270.505 325.491L239.727 320.007L243.936 312.147ZM267.686 349.985L263.34 365.876L256.467 364.651C255.882 364.547 255.28 364.702 254.818 365.075C252.563 366.897 249.858 367.64 247.203 367.167C244.548 366.694 242.266 365.062 240.778 362.573C240.474 362.063 239.963 361.711 239.378 361.607L232.505 360.382L233.915 343.968L242.256 345.454C242.84 345.559 243.442 345.404 243.904 345.031C246.16 343.209 248.864 342.466 251.519 342.939C254.175 343.412 256.456 345.043 257.944 347.532C258.249 348.042 258.76 348.395 259.345 348.499L267.686 349.985ZM258.054 377.432L233.475 373.053L234.18 364.847L237.777 365.487C239.884 368.557 242.943 370.574 246.484 371.205C250.024 371.836 253.592 370.999 256.629 368.846L260.226 369.487L258.054 377.432ZM266.745 345.652L260.946 344.618C258.839 341.549 255.779 339.532 252.239 338.901C248.699 338.27 245.131 339.107 242.093 341.259L236.294 340.226L236.998 332.02L268.918 337.706L266.745 345.652ZM273.868 334.422L233.488 327.228L234.207 323.19L274.587 330.384L273.868 334.422Z" fill="#8200BE"/>
<path d="M250.8 346.977C247.404 346.372 244.111 349.445 243.304 353.974C242.498 358.502 244.526 362.524 247.923 363.129C251.319 363.734 254.612 360.661 255.418 356.132C256.225 351.603 254.197 347.582 250.8 346.977ZM248.642 359.091C247.819 358.944 246.903 357.158 247.342 354.693C247.781 352.228 249.258 350.868 250.081 351.015C250.904 351.162 251.819 352.948 251.38 355.413C250.941 357.878 249.465 359.238 248.642 359.091Z" fill="#8200BE"/>
</g>
<g clip-path="url(#clip10)">
<path d="M23.5373 123.84C16.6338 122.61 9.71545 131.268 8.54576 137.833C7.77046 142.185 9.39961 146.583 12.7355 149.393L6.28171 185.618C5.6867 188.958 7.91978 192.159 11.2596 192.754C14.5994 193.349 17.8006 191.116 18.3957 187.777L24.8494 151.551C28.9507 150.066 31.9983 146.501 32.7736 142.15C33.9442 135.579 30.441 125.069 23.5373 123.84V123.84ZM22.5711 147.96C21.779 148.15 21.1749 148.792 21.032 149.594L14.3577 187.057C14.1593 188.17 13.0923 188.915 11.979 188.716C10.8657 188.518 10.1214 187.451 10.3197 186.338L16.9941 148.874C17.137 148.072 16.7916 147.262 16.1141 146.809C13.3989 144.996 12.0132 141.755 12.5837 138.553C13.4261 133.824 18.6893 127.142 22.8179 127.878C27.0006 128.623 29.5635 136.783 28.7357 141.43C28.1651 144.633 25.7454 147.196 22.5711 147.96V147.96Z" fill="#8200BE"/>
<path d="M59.8789 130.314C58.7639 130.115 57.6989 130.858 57.5002 131.973L54.9823 146.106L50.9444 145.387L53.4623 131.254C53.6609 130.139 52.918 129.074 51.803 128.875C50.6879 128.677 49.6229 129.42 49.4243 130.535L46.9064 144.667L42.8684 143.948L45.3863 129.815C45.5849 128.7 44.842 127.635 43.727 127.436C42.612 127.238 41.547 127.981 41.3483 129.096L37.7513 149.286C37.2824 151.918 38.5701 154.464 40.7718 155.716L34.5474 190.654C33.9524 193.994 36.1855 197.195 39.5253 197.79C42.8651 198.385 46.0663 196.152 46.6613 192.812L52.8858 157.874C55.3845 157.46 57.4723 155.515 57.9412 152.883L61.5382 132.693C61.7369 131.578 60.9939 130.513 59.8789 130.314ZM51.5246 153.823C50.4095 153.624 49.3445 154.367 49.1459 155.482L42.6234 192.093C42.425 193.206 41.3579 193.95 40.2447 193.752C39.1314 193.554 38.387 192.487 38.5854 191.373L45.1079 154.762C45.3065 153.647 44.5636 152.582 43.4486 152.384C42.3353 152.185 41.591 151.118 41.7893 150.005L42.149 147.986L54.263 150.144L53.9033 152.163C53.7049 153.277 52.6378 154.021 51.5246 153.823Z" fill="#8200BE"/>
</g>
<g clip-path="url(#clip11)">
<path d="M25.6037 265.839C14.4714 263.856 3.801 271.299 1.8177 282.431C0.85693 287.824 1.91829 294.268 4.65693 299.669C7.50512 305.285 11.6794 309.007 16.501 310.272C16.8236 311.23 17.2238 312.877 16.9235 314.562C16.4598 317.165 14.4533 319.112 14.4399 319.125C14.3175 319.24 11.4345 321.988 10.7275 325.956C10.0205 329.925 11.7769 333.499 11.8522 333.65C12.3596 334.665 13.5943 335.077 14.6057 334.571C15.6187 334.064 16.0312 332.837 15.5248 331.824C15.5124 331.799 14.3018 329.279 14.7655 326.676C15.2292 324.073 17.2356 322.126 17.2491 322.113C17.3715 321.998 20.2544 319.25 20.9614 315.282C21.2568 313.624 21.1217 312.035 20.8594 310.736C25.1826 310.553 29.6003 308.519 33.579 304.821C38.0141 300.699 41.2357 295.018 42.1965 289.625C44.1794 278.493 36.7361 267.822 25.6037 265.839ZM30.7864 301.817C28.4656 303.974 23.7655 307.449 18.3621 306.487C12.9586 305.524 9.74784 300.639 8.3148 297.814C5.96482 293.179 5.04543 287.698 5.85554 283.151C7.44218 274.245 15.9785 268.29 24.8844 269.877C33.7902 271.464 39.7449 280 38.1582 288.906C37.3481 293.453 34.5923 298.28 30.7864 301.817Z" fill="#8200BE"/>
</g>
<g clip-path="url(#clip12)">
<path d="M164.328 246.371L162.217 245.994C163.207 234.509 155.263 223.925 143.697 221.864L135.621 220.426C124.056 218.365 112.946 225.554 109.908 236.675L107.797 236.299C106.682 236.101 105.616 236.843 105.418 237.958L103.979 246.034C103.78 247.149 104.523 248.214 105.638 248.413L108.054 248.844L109.54 285.247C109.58 286.209 110.282 287.014 111.23 287.182L143.534 292.937C144.481 293.106 145.418 292.593 145.787 291.705L159.754 258.054L162.17 258.485C163.285 258.683 164.35 257.94 164.549 256.825L165.988 248.749C166.186 247.634 165.443 246.569 164.328 246.371ZM134.902 224.464L142.978 225.902C152.315 227.566 158.767 236.019 158.158 245.272L113.966 237.398C116.59 228.505 125.565 222.8 134.902 224.464V224.464ZM109.096 240.697L161.59 250.049L160.87 254.087L108.377 244.735L109.096 240.697ZM142.631 288.61L113.571 283.433L112.189 249.58L155.619 257.318L142.631 288.61Z" fill="#8200BE"/>
</g>
<defs>
<clipPath id="clip0">
<rect width="70" height="70" fill="white" transform="translate(194.015 571.154) rotate(10.1017)"/>
</clipPath>
<clipPath id="clip1">
<rect width="70" height="70" fill="white" transform="translate(308.069 526.459) rotate(10.1017)"/>
</clipPath>
<clipPath id="clip2">
<rect width="70" height="70" fill="white" transform="translate(422.126 481.766) rotate(10.1017)"/>
</clipPath>
<clipPath id="clip3">
<rect width="70" height="70" fill="white" transform="translate(-6.87549 394.254) rotate(10.1017)"/>
</clipPath>
<clipPath id="clip4">
<rect width="70" height="70" fill="white" transform="translate(-19.7812 519.603) rotate(10.1017)"/>
</clipPath>
<clipPath id="clip5">
<rect width="70" height="70" fill="white" transform="translate(94.2739 474.909) rotate(10.1017)"/>
</clipPath>
<clipPath id="clip6">
<rect width="70" height="87.5" fill="white" transform="translate(208.33 430.215) rotate(10.1017)"/>
</clipPath>
<clipPath id="clip7">
<rect width="70" height="70" fill="white" transform="translate(322.386 385.521) rotate(10.1017)"/>
</clipPath>
<clipPath id="clip8">
<rect width="70" height="70" fill="white" transform="translate(108.81 348.921) rotate(10.1017)"/>
</clipPath>
<clipPath id="clip9">
<rect width="70" height="70" fill="white" transform="translate(222.865 304.227) rotate(10.1017)"/>
</clipPath>
<clipPath id="clip10">
<rect width="70" height="70" fill="white" transform="translate(2.20312 120.039) rotate(10.1017)"/>
</clipPath>
<clipPath id="clip11">
<rect width="70" height="70" fill="white" transform="translate(-8.85352 259.7) rotate(10.1017)"/>
</clipPath>
<clipPath id="clip12">
<rect width="70" height="70" fill="white" transform="translate(105.202 215.006) rotate(10.1017)"/>
</clipPath>
</defs>
</svg>
