<svg width="199" height="60" viewBox="0 0 199 60" fill="none" xmlns="http://www.w3.org/2000/svg">
<path d="M3.168 46V19.504H10.08V26.416C11.072 21.232 13.952 18.64 18.72 18.64H19.104C23.104 18.64 25.776 20.48 27.12 24.16C28.464 20.48 31.136 18.64 35.136 18.64H35.52C38.464 18.64 40.736 19.664 42.336 21.712C43.936 23.76 44.736 26.832 44.736 30.928V46H36V30.688C36 29.472 35.664 28.464 34.992 27.664C34.352 26.832 33.424 26.416 32.208 26.416C30.992 26.416 30.032 26.832 29.328 27.664C28.656 28.464 28.32 29.504 28.32 30.784V46H19.584V30.688C19.584 29.472 19.248 28.464 18.576 27.664C17.936 26.832 17.008 26.416 15.792 26.416C14.576 26.416 13.616 26.832 12.912 27.664C12.24 28.464 11.904 29.504 11.904 30.784V46H3.168ZM58.2375 46.672C55.4215 46.672 53.1175 45.936 51.3255 44.464C49.5655 42.96 48.6855 40.88 48.6855 38.224C48.6855 36.24 49.2135 34.64 50.2695 33.424C51.3255 32.176 52.7815 31.264 54.6375 30.688C56.4935 30.112 58.6215 29.824 61.0215 29.824H65.1975C65.1655 28.608 64.8615 27.728 64.2855 27.184C63.7415 26.608 62.8455 26.32 61.5975 26.32C60.9895 26.32 60.0935 26.336 58.9095 26.368C57.7255 26.4 56.4775 26.448 55.1655 26.512C53.8535 26.576 52.6535 26.64 51.5655 26.704V19.408C52.3335 19.344 53.2455 19.28 54.3015 19.216C55.3575 19.152 56.4455 19.104 57.5655 19.072C58.7175 19.04 59.7735 19.024 60.7335 19.024C64.8295 19.024 67.9815 19.92 70.1895 21.712C72.4295 23.504 73.5495 26.24 73.5495 29.92V46H66.6375V41.104C66.0615 42.896 65.0695 44.272 63.6615 45.232C62.2535 46.192 60.4455 46.672 58.2375 46.672ZM61.0215 40.816C62.1415 40.816 63.0855 40.496 63.8535 39.856C64.6535 39.184 65.1015 37.968 65.1975 36.208V34.336H61.0215C59.8375 34.336 58.9255 34.64 58.2855 35.248C57.6455 35.824 57.3255 36.608 57.3255 37.6C57.3255 38.56 57.6455 39.344 58.2855 39.952C58.9255 40.528 59.8375 40.816 61.0215 40.816ZM90.2828 46.864C87.8188 46.864 85.6428 46.288 83.7548 45.136C81.8988 43.984 80.4428 42.4 79.3867 40.384C78.3628 38.336 77.8508 36.032 77.8508 33.472V32.32C77.8508 29.728 78.3468 27.408 79.3388 25.36C80.3308 23.312 81.7228 21.696 83.5148 20.512C85.3388 19.328 87.4988 18.736 89.9948 18.736C93.7388 18.736 96.5068 20.144 98.2988 22.96V10.96H107.035V46H100.123V40.384C99.3228 42.432 98.0748 44.032 96.3788 45.184C94.7148 46.304 92.6828 46.864 90.2828 46.864ZM92.6348 39.664C94.2348 39.664 95.6108 39.136 96.7628 38.08C97.9148 36.992 98.4908 35.456 98.4908 33.472V31.84C98.4908 30.56 98.2028 29.488 97.6268 28.624C97.0828 27.76 96.3628 27.104 95.4668 26.656C94.6028 26.176 93.6588 25.936 92.6348 25.936C90.8748 25.936 89.4188 26.576 88.2668 27.856C87.1468 29.136 86.5868 30.816 86.5868 32.896C86.5868 34.944 87.1468 36.592 88.2668 37.84C89.4188 39.056 90.8748 39.664 92.6348 39.664Z" fill="#0AF286"/>
<path d="M123.883 46.864C120.043 46.864 117.019 46.08 114.811 44.512C112.603 42.912 111.419 40.672 111.259 37.792H118.939C119.067 38.592 119.563 39.28 120.427 39.856C121.291 40.432 122.507 40.72 124.075 40.72C125.195 40.72 126.155 40.56 126.955 40.24C127.787 39.888 128.203 39.328 128.203 38.56C128.203 37.888 127.883 37.344 127.243 36.928C126.603 36.48 125.435 36.176 123.739 36.016L121.915 35.824C118.523 35.472 116.027 34.544 114.427 33.04C112.827 31.536 112.027 29.648 112.027 27.376C112.027 25.424 112.507 23.824 113.467 22.576C114.427 21.296 115.755 20.336 117.451 19.696C119.147 19.056 121.083 18.736 123.259 18.736C126.811 18.736 129.675 19.52 131.851 21.088C134.027 22.624 135.179 24.848 135.307 27.76H127.627C127.499 26.96 127.067 26.288 126.331 25.744C125.595 25.168 124.539 24.88 123.163 24.88C122.171 24.88 121.355 25.056 120.715 25.408C120.107 25.76 119.803 26.256 119.803 26.896C119.803 27.568 120.091 28.064 120.667 28.384C121.275 28.704 122.235 28.944 123.547 29.104L125.371 29.296C128.763 29.648 131.371 30.592 133.195 32.128C135.051 33.632 135.979 35.616 135.979 38.08C135.979 40.8 134.891 42.944 132.715 44.512C130.571 46.08 127.627 46.864 123.883 46.864ZM152.756 46.96C150.516 46.96 148.532 46.576 146.804 45.808C145.076 45.04 143.62 44 142.436 42.688C141.252 41.376 140.34 39.904 139.7 38.272C139.092 36.64 138.788 34.96 138.788 33.232V32.272C138.788 30.48 139.092 28.768 139.7 27.136C140.34 25.472 141.236 24 142.388 22.72C143.572 21.44 145.012 20.432 146.708 19.696C148.404 18.928 150.324 18.544 152.468 18.544C155.316 18.544 157.732 19.184 159.716 20.464C161.7 21.744 163.22 23.44 164.276 25.552C165.332 27.632 165.86 29.904 165.86 32.368V35.152H147.044C147.332 36.656 147.94 37.84 148.868 38.704C149.796 39.536 151.092 39.952 152.756 39.952C155.188 39.952 156.74 39.184 157.412 37.648H165.38C164.996 39.44 164.228 41.04 163.076 42.448C161.956 43.856 160.516 44.96 158.756 45.76C157.028 46.56 155.028 46.96 152.756 46.96ZM152.468 25.552C151.028 25.552 149.828 25.968 148.868 26.8C147.94 27.6 147.332 28.816 147.044 30.448H157.652C157.108 27.184 155.38 25.552 152.468 25.552ZM170.849 46V17.296H167.873V10.96H179.585V46H170.849ZM186.411 46V17.296H183.435V10.96H195.147V46H186.411Z" fill="#6815E6"/>
</svg>
